<svg t="1692596106411" class="icon" viewBox="0 0 1024 1024" version="1.1" xmlns="http://www.w3.org/2000/svg" p-id="25834" width="200" height="200"><path d="M749.1 477.1H562.3V290.3c0-27.3-22.1-49.4-49.4-49.4-27.3 0-49.4 22.1-49.4 49.4v186.8H276.7c-27.3 0-49.4 22.1-49.4 49.4 0 27.3 22.1 49.4 49.4 49.4h186.8v186.8c0 27.3 22.1 49.4 49.4 49.4 27.3 0 49.4-22.1 49.4-49.4V575.9h186.8c27.3 0 49.4-22.1 49.4-49.4 0-27.3-22.1-49.4-49.4-49.4z" fill="#37D1EB" p-id="25835"></path><path d="M759.3 1014.6H266.5c-141 0-255.7-114.7-255.7-255.7V266.1c0-141 114.7-255.7 255.7-255.7h492.8c141 0 255.7 114.7 255.7 255.7v492.8c0 141-114.7 255.7-255.7 255.7zM266.5 98.7c-92.3 0-167.3 75.1-167.3 167.3v492.8c0 92.3 75.1 167.3 167.3 167.3h492.8c92.3 0 167.3-75.1 167.3-167.3V266.1c0-92.3-75.1-167.3-167.3-167.3H266.5z" fill="#155CFF" p-id="25836"></path></svg>