<svg t="1692687219016" class="icon" viewBox="0 0 1024 1024" version="1.1" xmlns="http://www.w3.org/2000/svg" p-id="54153" width="200" height="200"><path d="M872.1 171.2H599.2c-30.3 0-58.1-16.6-72.5-43.3l-3.1-5.8c-7.2-13.3-21.1-21.7-36.2-21.7H182.8c-45.4 0-82.3 27.5-82.3 61.2V872c0 28.4 23 51.4 51.4 51.4H872c28.4 0 51.4-23 51.4-51.4V222.7c0.1-28.4-22.9-51.5-51.3-51.5zM670.8 678.5h-189v29c0.1 7-2.8 13.8-7.9 18.6-4.9 4.6-11.3 7.1-17.9 7.1-5.9 0-11.7-2.1-16.3-5.9l-85.6-70.7c-5.9-4.9-9.3-12.2-9.3-19.8 0-7.7 3.4-14.9 9.3-19.8l85.6-70.7c4.6-3.8 10.3-5.9 16.3-5.9 14.2 0 25.7 11.5 25.8 25.7v29h188.9c23.1 0 41.8 18.7 41.8 41.8 0.1 22.9-18.6 41.6-41.7 41.6z m194.8-290.1H158.4v-71.5c0-28.4 23-51.4 51.4-51.4h604.4c28.4 0 51.4 23 51.4 51.4v71.5z" fill="#00B570" p-id="54154"></path></svg>