<?xml version="1.0" standalone="no"?><!DOCTYPE svg PUBLIC "-//W3C//DTD SVG 1.1//EN" "http://www.w3.org/Graphics/SVG/1.1/DTD/svg11.dtd"><svg t="1724731288339" class="icon" viewBox="0 0 1024 1024" version="1.1" xmlns="http://www.w3.org/2000/svg" p-id="11397" xmlns:xlink="http://www.w3.org/1999/xlink" width="81" height="81"><path d="M959.985 1023.984H63.999a64.078999 64.078999 0 0 1-63.999-63.999V76.14281c0-41.999344 45.951282-76.15881 102.3984-76.15881H511.992l47.34326 87.998625H959.985a63.999 63.999 0 0 1 63.999 63.999v807.987375A63.999 63.999 0 0 1 959.985 1023.984zM143.99775 167.997375a63.999 63.999 0 0 0-63.999 63.999v559.99125a63.999 63.999 0 0 0 63.999 63.999h751.98825a63.999 63.999 0 0 0 63.999-63.999v-559.99125a63.999 63.999 0 0 0-63.999-63.999z" fill="#8dd6fe" p-id="11398"></path><path d="M959.985 961.008984H63.999a63.999 63.999 0 0 1-63.999-63.999v-511.992a63.999 63.999 0 0 1 63.999-63.999h895.986a63.999 63.999 0 0 1 63.999 63.999v511.992a63.999 63.999 0 0 1-63.999 63.999zM450.312964 510.040031a31.519508 31.519508 0 0 0-20.239684 7.391884l-106.558335 87.998625a31.9995 31.9995 0 0 0-11.599819 24.671615 31.9995 31.9995 0 0 0 11.599819 24.671614l106.558335 87.998625a31.407509 31.407509 0 0 0 20.223684 7.391885 32.831487 32.831487 0 0 0 22.287652-8.879862 31.535507 31.535507 0 0 0 9.887845-23.183637v-36.047437h287.067515v-103.998375H482.472461v-36.079436a32.175497 32.175497 0 0 0-32.127498-31.935501z" fill="#8dd6fe" p-id="11399"></path></svg>