<svg t="1689578646800" class="icon" viewBox="0 0 1024 1024" version="1.1" xmlns="http://www.w3.org/2000/svg" p-id="33798" width="200" height="200"><path d="M975.901648 367.37492c-52.32579-31.79483-96.10128-108.440337-97.278867-170.289216s-51.199404-104.446783-111.461102-94.821295-142.385541-20.479761-182.423474-67.224817-105.624369-46.693856-145.662303 0S317.118922 111.992295 256.754826 102.418007s-110.539512 32.870017-111.6147 94.718896-44.64588 138.494387-97.278867 170.289216-63.231263 97.074069-24.934109 145.150309 53.554576 135.166425 33.689207 193.687344 12.85105 115.86425 72.754353 127.640113 126.872122 68.7096 148.836666 126.411327 83.455028 80.383064 136.753607 50.431413 140.79836-30.00285 194.250537 0 114.942661 7.321515 136.753606-50.431413 88.830965-114.635464 148.785467-126.411327 92.67092-69.221594 72.856751-127.640113-4.812744-145.611104 33.638008-193.687344 26.879687-113.201881-25.343704-145.201508zM474.915484 783.370074l-226.301363-226.301364 90.520545-90.315748 135.780818 135.832018 226.506161-226.301364 90.520546 90.469346L474.915484 783.370074z" fill="#FFC000" p-id="33799"></path></svg>