<svg t="1696992199613" class="icon" viewBox="0 0 1024 1024" version="1.1" xmlns="http://www.w3.org/2000/svg" p-id="20996" width="200" height="200"><path d="M262.826667 417.28a243.2 157.866667 0 1 0 486.4 0 243.2 157.866667 0 1 0-486.4 0Z" fill="#333333" p-id="20997"></path><path d="M269.824 785.408c-57.685333 0-104.618667-46.933333-104.618667-104.618667s46.933333-104.618667 104.618667-104.618666 104.618667 46.933333 104.618667 104.618666c-0.170667 57.856-47.104 104.618667-104.618667 104.618667z" fill="#333333" p-id="20998"></path><path d="M269.824 751.274667c-38.741333 0-70.485333-31.573333-70.485333-70.485334s31.573333-70.485333 70.485333-70.485333 70.485333 31.573333 70.485333 70.485333-31.744 70.485333-70.485333 70.485334z" fill="#CCCCCC" p-id="20999"></path><path d="M933.376 427.008h-148.650667v-0.682667c0-103.765333-122.197333-187.733333-272.896-187.733333S238.933333 322.730667 238.933333 426.325333v0.682667H90.624C41.301333 427.008 1.194667 467.114667 1.194667 516.437333v72.192c0 49.322667 40.106667 89.429333 89.429333 89.429334h42.837333c1.706667-73.728 62.122667-133.290667 136.362667-133.290667s134.826667 59.562667 136.362667 133.290667h216.576v-0.682667c0-75.264 61.269333-136.362667 136.362666-136.362667s136.362667 61.269333 136.362667 136.362667v0.682667h37.888c49.322667 0 89.429333-40.106667 89.429333-89.429334v-72.192c0-49.493333-40.106667-89.429333-89.429333-89.429333z m-443.392 0H294.912v-0.682667c0-77.482667 85.504-141.141333 195.072-148.650666v149.333333z m239.104 0H534.016v-149.333333c109.568 7.68 195.072 71.338667 195.072 148.650666v0.682667z" fill="#00B4FF" p-id="21000"></path><path d="M759.125333 781.824c-57.685333 0-104.618667-46.933333-104.618666-104.618667s46.933333-104.618667 104.618666-104.618666 104.618667 46.933333 104.618667 104.618666-46.933333 104.618667-104.618667 104.618667z" fill="#333333" p-id="21001"></path><path d="M759.125333 747.690667c-38.741333 0-70.485333-31.573333-70.485333-70.485334s31.573333-70.485333 70.485333-70.485333 70.485333 31.573333 70.485334 70.485333-31.573333 70.485333-70.485334 70.485334z" fill="#CCCCCC" p-id="21002"></path></svg>