<svg t="1698998570037" class="inline icon w-5 h-5 mr-2" viewBox="0 0 1024 1024" version="1.1" xmlns="http://www.w3.org/2000/svg" p-id="21572" width="200" height="200"><path d="M938.666667 464.592593h-853.333334v-265.481482c0-62.577778 51.2-113.777778 113.777778-113.777778h128.948148c15.17037 0 28.444444 3.792593 41.718519 11.377778l98.607407 64.474074h356.503704c62.577778 0 113.777778 51.2 113.777778 113.777778v189.62963z" fill="#3A69DD" p-id="21573"></path><path d="M805.925926 398.222222h-587.851852v-125.155555c0-24.651852 20.859259-45.511111 45.511111-45.511111h496.82963c24.651852 0 45.511111 20.859259 45.511111 45.511111V398.222222z" fill="#D9E3FF" p-id="21574"></path><path d="M843.851852 417.185185h-663.703704v-98.607407c0-28.444444 22.755556-53.096296 53.096296-53.096297h559.407408c28.444444 0 53.096296 22.755556 53.096296 53.096297V417.185185z" fill="#FFFFFF" p-id="21575"></path><path d="M786.962963 938.666667h-549.925926c-83.437037 0-151.703704-68.266667-151.703704-151.703704V341.333333s316.681481 37.925926 430.45926 37.925926c189.62963 0 422.874074-37.925926 422.874074-37.925926v445.62963c0 83.437037-68.266667 151.703704-151.703704 151.703704z" fill="#5F7CF9" p-id="21576"></path><path d="M559.407407 512h-75.851851c-20.859259 0-37.925926-17.066667-37.925926-37.925926s17.066667-37.925926 37.925926-37.925926h75.851851c20.859259 0 37.925926 17.066667 37.925926 37.925926s-17.066667 37.925926-37.925926 37.925926z" fill="#F9D523" p-id="21577"></path></svg>