<svg t="1692148121067" class="icon" viewBox="0 0 1024 1024" version="1.1" xmlns="http://www.w3.org/2000/svg" p-id="38278" width="200" height="200"><path d="M512 0C230.4 0 0 230.4 0 512s230.4 512 512 512 512-230.4 512-512S793.6 0 512 0z m0 887.466667C305.493333 887.466667 136.533333 718.506667 136.533333 512S305.493333 136.533333 512 136.533333s375.466667 168.96 375.466667 375.466667-168.96 375.466667-375.466667 375.466667z" p-id="38279" fill="#d4237a"></path><path d="M525.653333 414.72h100.693334c37.546667 0 68.266667-30.72 68.266666-68.266667s-30.72-68.266667-68.266666-68.266666h-100.693334c-131.413333 0-237.226667 105.813333-237.226666 237.226666s105.813333 237.226667 237.226666 237.226667h100.693334c37.546667 0 68.266667-30.72 68.266666-68.266667s-30.72-68.266667-68.266666-68.266666h-100.693334c-56.32 0-100.693333-46.08-100.693333-100.693334s44.373333-100.693333 100.693333-100.693333z" p-id="38280" fill="#d4237a"></path></svg>