<svg t="1710914779150" class="icon" viewBox="0 0 1181 1024" version="1.1" xmlns="http://www.w3.org/2000/svg" p-id="3658" width="200" height="200"><path d="M1024 0H157.538462a157.538462 157.538462 0 0 0-157.538462 157.538462v708.923076a157.538462 157.538462 0 0 0 157.538462 157.538462h866.461538a157.538462 157.538462 0 0 0 157.538462-157.538462V157.538462a157.538462 157.538462 0 0 0-157.538462-157.538462z m-176.679385 546.264615L453.553231 781.942154a40.172308 40.172308 0 0 1-39.699693 0.472615A39.148308 39.148308 0 0 1 393.846154 748.228923V276.873846a39.305846 39.305846 0 0 1 59.707077-33.713231l393.767384 235.677539a39.227077 39.227077 0 0 1 0 67.426461z" fill="#096DD9" p-id="3659"></path></svg>