<svg height="1024" node-id="1" sillyvg="true" template-height="1024" template-width="1024" version="1.1" viewBox="0 0 1024 1024" width="1024" xmlns="http://www.w3.org/2000/svg" xmlns:xlink="http://www.w3.org/1999/xlink"><defs node-id="130"><linearGradient gradientUnits="objectBoundingBox" id="linearGradient-1" node-id="5" spreadMethod="pad" x1="-0.1358235" x2="0.5" y1="0.5" y2="0.47203198"><stop offset="0" stop-color="#98d6fa"/><stop offset="1" stop-color="#47b0f1"/></linearGradient><linearGradient gradientUnits="objectBoundingBox" id="linearGradient-2" node-id="8" spreadMethod="pad" x1="-0.0000000000000009337728" x2="1" y1="-0.031055901" y2="-0.031055901"><stop offset="0" stop-color="#fff5de"/><stop offset="1" stop-color="#fbd2ac"/></linearGradient><linearGradient gradientUnits="objectBoundingBox" id="linearGradient-3" node-id="11" spreadMethod="pad" x1="-0.1358235" x2="0.5" y1="0.5" y2="0.47628444"><stop offset="0" stop-color="#98d6fa"/><stop offset="1" stop-color="#47b0f1"/></linearGradient><linearGradient gradientUnits="objectBoundingBox" id="linearGradient-4" node-id="14" spreadMethod="pad" x1="-0.1358235" x2="0.5" y1="0.5" y2="0.47629464"><stop offset="0" stop-color="#98d6fa"/><stop offset="1" stop-color="#47b0f1"/></linearGradient><linearGradient gradientUnits="objectBoundingBox" id="linearGradient-5" node-id="17" spreadMethod="pad" x1="-0.1358235" x2="0.5" y1="0.5" y2="0.47629884"><stop offset="0" stop-color="#98d6fa"/><stop offset="1" stop-color="#47b0f1"/></linearGradient><linearGradient gradientUnits="objectBoundingBox" id="linearGradient-6" node-id="20" spreadMethod="pad" x1="-0.13582349" x2="0.49999997" y1="0.49999997" y2="0.43423018"><stop offset="0" stop-color="#98d6fa"/><stop offset="1" stop-color="#47b0f1"/></linearGradient><linearGradient gradientUnits="objectBoundingBox" id="linearGradient-7" node-id="23" spreadMethod="pad" x1="0.4313989" x2="0.6033656" y1="-0.06451612" y2="0"><stop offset="0.031572677" stop-color="#afdef9"/><stop offset="1" stop-color="#7cc9f9"/></linearGradient><linearGradient gradientUnits="objectBoundingBox" id="linearGradient-8" node-id="26" spreadMethod="pad" x1="0.05920258" x2="0.5996637" y1="0.60857147" y2="0.3705422"><stop offset="0" stop-color="#98d6fa"/><stop offset="1" stop-color="#47b0f1"/></linearGradient><linearGradient gradientUnits="objectBoundingBox" id="linearGradient-9" node-id="29" spreadMethod="pad" x1="0.44492638" x2="0.58298296" y1="-0.06451613" y2="0"><stop offset="0.031572677" stop-color="#afdef9"/><stop offset="1" stop-color="#7cc9f9"/></linearGradient><linearGradient gradientUnits="objectBoundingBox" id="linearGradient-10" node-id="32" spreadMethod="pad" x1="0.28403884" x2="0.5" y1="0.8700849" y2="0.30481097"><stop offset="0" stop-color="#98d6fa"/><stop offset="1" stop-color="#47b0f1"/></linearGradient><linearGradient gradientUnits="objectBoundingBox" id="linearGradient-11" node-id="35" spreadMethod="pad" x1="0.8017669" x2="0.40161258" y1="0.7812446" y2="0.012035674"><stop offset="0" stop-color="#98d6fa"/><stop offset="1" stop-color="#47b0f1"/></linearGradient><linearGradient gradientUnits="objectBoundingBox" id="linearGradient-12" node-id="38" spreadMethod="pad" x1="0.1696366" x2="0.73110634" y1="0.776033" y2="0.27310416"><stop offset="0" stop-color="#98d6fa"/><stop offset="1" stop-color="#47b0f1"/></linearGradient><linearGradient gradientUnits="objectBoundingBox" id="linearGradient-14" node-id="44" spreadMethod="pad" x1="0" x2="0.84977597" y1="0.6436173" y2="0.3819483"><stop offset="0" stop-color="#98d6fa"/><stop offset="1" stop-color="#47b0f1"/></linearGradient><linearGradient gradientUnits="objectBoundingBox" id="linearGradient-15" node-id="47" spreadMethod="pad" x1="0" x2="0.84977597" y1="0.63935465" y2="0.38545215"><stop offset="0" stop-color="#98d6fa"/><stop offset="1" stop-color="#47b0f1"/></linearGradient><linearGradient gradientUnits="objectBoundingBox" id="linearGradient-16" node-id="50" spreadMethod="pad" x1="1" x2="0" y1="-0.11764706" y2="-0.11764706"><stop offset="0" stop-color="#f5dda7"/><stop offset="1" stop-color="#fa9a41"/></linearGradient><linearGradient gradientUnits="objectBoundingBox" id="linearGradient-17" node-id="53" spreadMethod="pad" x1="0.5" x2="1.2718465" y1="0.28340417" y2="0.6884129"><stop offset="0" stop-color="#98d6fa"/><stop offset="1" stop-color="#47b0f1"/></linearGradient><linearGradient gradientUnits="objectBoundingBox" id="linearGradient-18" node-id="56" spreadMethod="pad" x1="0.5" x2="1.2718465" y1="0.021397227" y2="0.91632813"><stop offset="0" stop-color="#98d6fa"/><stop offset="1" stop-color="#47b0f1"/></linearGradient><linearGradient gradientUnits="objectBoundingBox" id="linearGradient-19" node-id="59" spreadMethod="pad" x1="0.27072352" x2="0.6696898" y1="0.22676362" y2="0.9064481"><stop offset="0" stop-color="#98d6fa"/><stop offset="1" stop-color="#47b0f1"/></linearGradient><linearGradient gradientUnits="objectBoundingBox" id="linearGradient-20" node-id="62" spreadMethod="pad" x1="0.4317056" x2="0.7126565" y1="0.076702476" y2="0.9064481"><stop offset="0" stop-color="#98d6fa"/><stop offset="1" stop-color="#47b0f1"/></linearGradient><linearGradient gradientUnits="objectBoundingBox" id="linearGradient-21" node-id="65" spreadMethod="pad" x1="0.15011948" x2="0.5" y1="0.2965486" y2="0.6494582"><stop offset="0" stop-color="#98d6fa"/><stop offset="1" stop-color="#47b0f1"/></linearGradient><linearGradient gradientUnits="objectBoundingBox" id="linearGradient-22" node-id="68" spreadMethod="pad" x1="0" x2="0.87005496" y1="0.40404868" y2="0.6427308"><stop offset="0" stop-color="#98d6fa"/><stop offset="1" stop-color="#47b0f1"/></linearGradient><linearGradient gradientUnits="objectBoundingBox" id="linearGradient-23" node-id="71" spreadMethod="pad" x1="-0.015502586" x2="0.73202413" y1="-0.29083106" y2="0.8301304"><stop offset="0.00006316925" stop-color="#47b0f1"/><stop offset="1" stop-color="#98d6fa"/></linearGradient><linearGradient gradientUnits="objectBoundingBox" id="linearGradient-24" node-id="74" spreadMethod="pad" x1="0" x2="1" y1="-0.4564024" y2="0.7574101"><stop offset="0" stop-color="#98d6fa"/><stop offset="1" stop-color="#47b0f1"/></linearGradient><linearGradient gradientUnits="objectBoundingBox" id="linearGradient-25" node-id="77" spreadMethod="pad" x1="0" x2="0.9941853" y1="-0.029698754" y2="-0.029698754"><stop offset="0" stop-color="#ffb859"/><stop offset="1" stop-color="#f97b61"/></linearGradient><linearGradient gradientUnits="objectBoundingBox" id="linearGradient-26" node-id="80" spreadMethod="pad" x1="0.13724977" x2="1" y1="-0.028050492" y2="-0.028050492"><stop offset="0" stop-color="#1d181c"/><stop offset="0.3" stop-color="#2c2422"/><stop offset="0.5" stop-color="#42352c"/><stop offset="0.7" stop-color="#57352c"/><stop offset="1" stop-color="#923629"/></linearGradient></defs><g node-id="357"><path d="M 0.00 0.00 L 1024.00 0.00 L 1024.00 1024.00 L 0.00 1024.00 Z" fill="#ffffff" fill-opacity="0" fill-rule="evenodd" group-id="1" id="矩形" node-id="87" stroke="none" target-height="1024" target-width="1024" target-x="0" target-y="0"/></g><g node-id="358"><g node-id="363"><path d="M 76.80 581.77 L 73.83 568.49 L 71.97 559.38 L 69.82 547.84 L 67.80 535.55 L 65.82 521.45 L 64.17 506.83 L 62.88 491.00 L 62.32 480.31 L 62.04 469.36 L 62.05 458.15 L 62.42 446.95 L 63.20 435.75 L 64.39 424.55 L 66.06 413.42 L 68.25 402.53 L 70.95 391.87 L 73.38 383.98 L 76.16 376.33 L 79.29 368.94 L 82.78 361.77 L 86.68 354.81 L 91.00 348.19 L 95.75 341.89 L 100.92 335.90 L 106.51 330.33 L 112.60 325.15 L 119.24 320.35 L 126.45 315.93 L 132.34 312.86 L 138.66 310.07 L 145.42 307.58 L 152.66 305.39 L 160.40 303.51 L 178.10 300.08 L 194.86 297.29 L 210.72 295.10 L 226.66 293.29 L 241.76 291.87 L 256.05 290.83 L 277.25 289.66 L 296.81 288.85 L 315.85 288.13 L 333.44 287.30 L 344.99 286.55 L 355.96 285.55 L 366.35 284.30 L 376.69 282.65 L 386.56 280.55 L 395.98 278.01 L 402.93 275.71 L 409.70 273.04 L 416.31 269.98 L 422.76 266.54 L 428.94 262.74 L 435.06 258.41 L 441.11 253.52 L 447.10 248.05 L 456.03 239.55 L 464.00 232.33 L 471.08 226.27 L 478.37 220.45 L 484.92 215.65 L 490.79 211.76 L 496.88 208.19 L 502.50 205.35 L 507.67 203.18 L 513.00 201.39 L 518.16 200.08 L 523.16 199.21 L 528.22 198.69 L 533.39 198.46 L 538.68 198.51 L 546.76 198.96 L 555.68 199.75 L 575.59 201.60 L 582.89 201.85 L 590.28 201.53 L 597.79 200.63 L 605.24 199.25 L 612.69 197.44 L 620.16 195.20 L 627.52 192.63 L 634.75 189.78 L 641.86 186.68 L 652.27 181.65 L 662.07 176.43 L 671.50 171.00 L 679.96 165.81 L 694.70 156.20 L 705.47 148.96 L 708.73 147.00 L 714.62 143.93 L 721.41 140.81 L 730.35 137.21 L 736.61 134.98 L 743.59 132.79 L 751.34 130.64 L 759.13 128.82 L 767.44 127.29 L 776.27 126.05 L 785.14 125.28 L 794.32 125.01 L 803.83 125.28 L 810.91 125.87 L 818.07 126.88 L 825.33 128.30 L 832.69 130.15 L 839.85 132.42 L 847.04 135.22 L 854.26 138.58 L 861.53 142.51 L 868.42 146.86 L 875.30 151.89 L 882.17 157.65 L 889.04 164.20 L 894.08 169.58 L 899.09 175.53 L 904.06 182.06 L 909.00 189.21 L 913.89 197.03 L 918.24 204.72 L 922.51 213.10 L 926.70 222.22 L 930.79 232.13 L 934.77 242.86 L 938.20 253.22 L 941.49 264.41 L 944.62 276.49 L 947.58 289.51 L 950.35 303.51 L 951.86 326.93 L 953.22 350.50 L 954.29 374.03 L 954.96 397.17 L 955.14 412.56 L 955.02 427.53 L 954.62 442.08 L 953.86 456.63 L 952.72 470.53 L 951.21 483.79 L 949.74 493.77 L 948.00 503.26 L 946.01 512.28 L 943.77 520.85 L 941.11 529.43 L 938.14 537.43 L 934.87 544.88 L 931.33 551.81 L 928.10 557.25 L 924.65 562.30 L 920.97 566.96 L 917.06 571.27 L 912.91 575.24 L 907.58 580.33 L 903.24 585.14 L 899.78 589.70 L 897.11 594.04 L 894.81 598.79 L 893.19 603.30 L 892.20 607.60 L 891.78 611.74 L 891.86 615.97 L 892.40 620.04 L 893.40 623.97 L 894.87 627.79 L 896.71 631.46 L 898.90 634.98 L 901.43 638.38 L 904.32 641.65 L 908.52 645.67 L 913.11 649.38 L 918.09 652.77 L 923.32 655.79 L 928.66 658.40 L 934.12 660.61 L 939.72 662.43 L 945.12 663.75 L 950.35 664.62 L 953.51 665.26 L 956.01 666.20 L 957.99 667.41 L 959.51 668.87 L 960.66 670.60 L 961.58 673.06 L 961.99 675.94 L 961.82 679.34 L 960.97 683.39 L 959.71 687.14 L 957.90 691.28 L 955.47 695.88 L 952.32 700.96 L 947.83 707.28 L 942.35 714.05 L 935.76 721.31 L 928.84 728.20 L 921.05 735.24 L 912.32 742.43 L 903.29 749.20 L 893.54 755.83 L 883.04 762.30 L 874.99 766.81 L 866.64 771.08 L 857.96 775.11 L 848.95 778.90 L 843.66 781.07 L 836.30 783.68 L 826.40 786.78 L 810.77 791.13 L 790.68 796.12 L 769.11 800.94 L 743.83 806.04 L 717.35 810.87 L 687.89 815.68 L 657.52 820.08 L 624.90 824.17 L 602.89 826.57 L 580.23 828.73 L 556.89 830.63 L 533.55 832.18 L 509.89 833.37 L 485.91 834.19 L 461.93 834.59 L 437.96 834.52 L 413.99 833.98 L 390.06 832.93 L 366.45 831.31 L 343.18 829.14 L 325.71 827.08 L 308.62 824.67 L 291.88 821.90 L 275.50 818.78 L 259.09 815.19 L 243.22 811.19 L 227.86 806.81 L 212.99 802.04 L 204.36 798.02 L 196.16 793.63 L 188.36 788.88 L 180.95 783.75 L 173.79 778.21 L 166.99 772.40 L 160.52 766.31 L 154.39 759.94 L 146.65 751.04 L 139.45 741.84 L 132.78 732.32 L 126.55 722.51 L 120.82 712.60 L 115.56 702.60 L 110.67 692.40 L 106.23 682.36 L 102.22 672.46 L 96.77 657.57 L 92.21 643.60 L 88.21 629.92 L 84.99 617.74 L 82.19 606.11 L 80.04 596.56 L 76.80 581.77 Z" fill="#47b0f1" fill-opacity="0.05" fill-rule="nonzero" group-id="2,7" id="路径-58" node-id="89" stroke="none" target-height="709.57654" target-width="899.9474" target-x="62.037743" target-y="125.01145"/></g><g node-id="364"><path d="M 158.00 329.00 L 158.00 329.15 L 159.66 329.70 L 161.07 330.55 L 162.28 331.73 L 163.21 333.13 L 163.78 334.71 L 164.00 336.50 L 164.00 337.50 L 163.73 339.51 L 162.98 341.29 L 161.80 342.80 L 160.29 343.98 L 158.51 344.73 L 156.50 345.00 L 77.50 345.00 L 75.49 344.73 L 73.71 343.98 L 72.20 342.80 L 71.02 341.29 L 70.27 339.51 L 70.00 337.50 L 70.00 336.50 L 70.27 334.49 L 71.02 332.71 L 72.20 331.20 L 73.71 330.02 L 75.49 329.27 L 77.50 329.00 L 109.00 329.00 L 110.86 328.74 L 112.47 328.09 L 113.87 327.03 L 114.97 325.66 L 115.68 324.08 L 116.00 322.24 L 116.00 322.00 L 115.74 320.14 L 115.09 318.53 L 114.03 317.13 L 112.66 316.03 L 111.08 315.32 L 109.24 315.00 L 109.00 315.00 L 106.00 315.00 L 106.00 314.85 L 104.34 314.30 L 102.93 313.45 L 101.72 312.28 L 100.79 310.87 L 100.22 309.29 L 100.00 307.50 L 100.00 306.50 L 100.27 304.49 L 101.02 302.71 L 102.20 301.20 L 103.71 300.02 L 105.49 299.27 L 107.50 299.00 L 186.50 299.00 L 188.51 299.27 L 190.29 300.02 L 191.80 301.20 L 192.98 302.71 L 193.73 304.49 L 194.00 306.50 L 194.00 307.50 L 193.73 309.51 L 192.98 311.29 L 191.80 312.80 L 190.29 313.98 L 188.51 314.73 L 186.50 315.00 L 155.00 315.00 L 153.14 315.26 L 151.53 315.91 L 150.13 316.97 L 149.03 318.34 L 148.32 319.92 L 148.00 321.76 L 148.00 322.00 L 148.26 323.86 L 148.91 325.47 L 149.97 326.87 L 151.34 327.97 L 152.92 328.68 L 154.76 329.00 L 155.00 329.00 L 158.00 329.00 Z" fill="url(#linearGradient-1)" fill-opacity="0.1" fill-rule="nonzero" group-id="2,8" id="形状结合" node-id="90" stroke="none" target-height="46" target-width="124" target-x="70" target-y="299"/></g><g node-id="365"><path d="M 858.00 159.00 L 858.00 159.15 L 859.66 159.70 L 861.07 160.55 L 862.28 161.73 L 863.21 163.13 L 863.78 164.71 L 864.00 166.50 L 864.00 167.50 L 863.73 169.51 L 862.98 171.29 L 861.80 172.80 L 860.29 173.98 L 858.51 174.73 L 856.50 175.00 L 777.50 175.00 L 775.49 174.73 L 773.71 173.98 L 772.20 172.80 L 771.02 171.29 L 770.27 169.51 L 770.00 167.50 L 770.00 166.50 L 770.27 164.49 L 771.02 162.71 L 772.20 161.20 L 773.71 160.02 L 775.49 159.27 L 777.50 159.00 L 809.00 159.00 L 810.86 158.74 L 812.47 158.09 L 813.87 157.03 L 814.97 155.66 L 815.68 154.08 L 816.00 152.24 L 816.00 152.00 L 815.74 150.14 L 815.09 148.53 L 814.03 147.13 L 812.66 146.03 L 811.08 145.32 L 809.24 145.00 L 809.00 145.00 L 806.00 145.00 L 806.00 144.85 L 804.34 144.30 L 802.93 143.45 L 801.72 142.28 L 800.79 140.87 L 800.22 139.29 L 800.00 137.50 L 800.00 136.50 L 800.27 134.49 L 801.02 132.71 L 802.20 131.20 L 803.71 130.02 L 805.49 129.27 L 807.50 129.00 L 886.50 129.00 L 888.51 129.27 L 890.29 130.02 L 891.80 131.20 L 892.98 132.71 L 893.73 134.49 L 894.00 136.50 L 894.00 137.50 L 893.73 139.51 L 892.98 141.29 L 891.80 142.80 L 890.29 143.98 L 888.51 144.73 L 886.50 145.00 L 855.00 145.00 L 853.14 145.26 L 851.53 145.91 L 850.13 146.97 L 849.03 148.34 L 848.32 149.92 L 848.00 151.76 L 848.00 152.00 L 848.26 153.86 L 848.91 155.47 L 849.97 156.87 L 851.34 157.97 L 852.92 158.68 L 854.76 159.00 L 855.00 159.00 L 858.00 159.00 Z" fill="url(#linearGradient-1)" fill-opacity="0.1" fill-rule="nonzero" group-id="2,9" id="形状结合" node-id="91" stroke="none" target-height="46" target-width="124" target-x="770" target-y="129"/></g><path d="M 514.52 712.00 L 547.37 712.23 L 579.21 712.89 L 610.06 713.95 L 640.94 715.46 L 670.45 717.33 L 698.63 719.55 L 726.81 722.21 L 753.27 725.16 L 778.08 728.37 L 802.87 732.07 L 825.57 735.96 L 846.30 740.01 L 859.80 740.35 L 872.74 741.09 L 885.14 742.23 L 897.51 743.80 L 909.11 745.69 L 919.97 747.90 L 930.76 750.55 L 940.56 753.43 L 949.44 756.51 L 958.16 760.10 L 965.70 763.79 L 972.17 767.57 L 976.89 770.83 L 980.85 774.09 L 984.13 777.33 L 986.82 780.57 L 989.12 784.18 L 990.72 787.76 L 991.67 791.35 L 992.00 795.00 L 991.69 798.54 L 990.79 802.03 L 989.29 805.52 L 987.11 809.02 L 984.58 812.18 L 981.48 815.34 L 977.74 818.52 L 973.29 821.71 L 967.16 825.42 L 960.02 829.05 L 951.76 832.59 L 943.35 835.66 L 934.04 838.54 L 923.79 841.22 L 913.46 843.47 L 902.42 845.45 L 890.61 847.13 L 877.57 850.71 L 863.22 854.25 L 847.45 857.75 L 847.86 860.86 L 848.00 864.00 L 847.72 868.37 L 846.93 872.68 L 845.63 876.97 L 843.78 881.25 L 841.34 885.55 L 838.62 889.49 L 835.40 893.43 L 831.65 897.38 L 827.33 901.35 L 822.39 905.34 L 816.17 909.76 L 809.18 914.15 L 801.36 918.50 L 792.64 922.79 L 783.98 926.61 L 774.61 930.31 L 764.51 933.89 L 753.61 937.35 L 742.85 940.40 L 731.48 943.27 L 719.48 945.96 L 706.82 948.45 L 690.03 951.24 L 672.36 953.60 L 653.78 955.52 L 635.17 956.87 L 615.92 957.71 L 596.00 958.00 L 580.31 957.82 L 565.05 957.30 L 550.19 956.45 L 535.72 955.29 L 521.12 953.78 L 507.09 951.98 L 493.63 949.92 L 480.69 947.60 L 467.61 944.90 L 455.27 941.99 L 443.62 938.87 L 432.64 935.58 L 421.53 931.83 L 411.30 927.95 L 401.91 923.95 L 393.29 919.85 L 384.63 915.21 L 376.98 910.52 L 370.25 905.81 L 364.36 901.08 L 359.76 896.80 L 355.83 892.55 L 352.52 888.32 L 349.79 884.11 L 347.59 879.89 L 319.63 877.55 L 293.22 874.92 L 268.31 872.02 L 243.41 868.68 L 220.39 865.13 L 199.15 861.41 L 177.96 857.17 L 158.97 852.84 L 142.02 848.43 L 129.15 844.64 L 117.74 840.88 L 107.67 837.15 L 98.84 833.46 L 91.44 829.95 L 85.12 826.54 L 79.76 823.22 L 75.26 819.99 L 71.53 816.86 L 68.41 813.69 L 66.00 810.64 L 64.21 807.66 L 62.98 804.75 L 62.26 801.88 L 62.00 799.00 L 62.25 796.17 L 62.95 793.34 L 64.14 790.48 L 65.86 787.57 L 68.18 784.57 L 71.18 781.47 L 74.78 778.38 L 79.12 775.20 L 84.30 771.94 L 90.39 768.58 L 97.53 765.14 L 106.05 761.50 L 115.77 757.82 L 126.79 754.10 L 139.22 750.36 L 155.59 745.99 L 173.95 741.69 L 194.45 737.48 L 215.00 733.77 L 237.29 730.22 L 261.41 726.86 L 285.55 723.93 L 311.15 721.25 L 338.28 718.84 L 365.40 716.83 L 393.72 715.13 L 423.25 713.77 L 452.77 712.80 L 483.18 712.21 L 514.52 712.00 Z" fill="url(#linearGradient-2)" fill-rule="nonzero" group-id="2" id="形状结合" node-id="92" stroke="none" target-height="246" target-width="930" target-x="62" target-y="712"/><path d="M 686.61 226.65 L 686.61 226.55 L 685.01 222.93 L 683.00 219.68 L 680.58 216.79 L 677.80 214.22 L 674.75 212.00 L 671.42 210.13 L 667.89 208.62 L 664.26 207.48 L 660.49 206.70 L 656.66 206.29 L 652.90 206.27 L 649.17 206.62 L 652.02 205.05 L 655.10 203.70 L 658.44 202.57 L 661.87 201.75 L 665.32 201.25 L 668.81 201.07 L 672.29 201.26 L 675.58 201.84 L 678.72 202.80 L 681.66 204.21 L 684.28 206.07 L 686.61 208.44 L 686.61 208.53 L 688.93 206.19 L 691.55 204.33 L 694.50 202.93 L 697.65 201.97 L 700.95 201.39 L 704.43 201.20 L 707.93 201.37 L 711.38 201.86 L 714.81 202.68 L 718.15 203.79 L 721.22 205.14 L 724.04 206.71 L 720.32 206.38 L 716.56 206.43 L 712.73 206.85 L 708.97 207.63 L 705.33 208.78 L 701.81 210.29 L 698.47 212.16 L 695.42 214.37 L 692.64 216.93 L 690.22 219.81 L 688.21 223.04 L 686.61 226.64 L 686.61 226.65 Z" fill="url(#linearGradient-3)" fill-rule="nonzero" group-id="2,10" id="路径" node-id="94" stroke="none" target-height="25.575363" target-width="74.86871" target-x="649.17413" target-y="201.07417"/><path d="M 770.03 214.11 L 770.03 214.04 L 768.91 211.52 L 767.52 209.27 L 765.87 207.27 L 763.93 205.50 L 761.04 203.50 L 757.92 201.95 L 754.53 200.83 L 751.02 200.16 L 747.55 199.97 L 744.09 200.23 L 747.10 198.65 L 750.51 197.42 L 754.08 196.65 L 757.70 196.39 L 760.11 196.51 L 762.39 196.91 L 764.57 197.58 L 766.61 198.56 L 768.42 199.85 L 770.03 201.49 L 770.03 201.55 L 771.65 199.93 L 773.47 198.64 L 775.51 197.67 L 777.69 197.00 L 779.98 196.60 L 782.39 196.47 L 786.01 196.74 L 789.58 197.50 L 792.98 198.72 L 795.98 200.29 L 792.52 200.05 L 789.05 200.26 L 785.54 200.93 L 782.15 202.06 L 779.03 203.61 L 776.14 205.60 L 773.62 208.01 L 771.59 210.83 L 770.03 214.11 L 770.03 214.11 Z" fill="url(#linearGradient-4)" fill-rule="nonzero" group-id="2,10" id="路径" node-id="95" stroke="none" target-height="17.723465" target-width="51.89435" target-x="744.0873" target-y="196.38516"/><path d="M 735.24 179.63 L 735.24 179.57 L 734.12 177.04 L 732.73 174.80 L 731.07 172.79 L 729.14 171.02 L 726.25 169.02 L 723.13 167.47 L 719.74 166.35 L 716.23 165.68 L 712.76 165.49 L 709.29 165.75 L 712.31 164.17 L 715.72 162.95 L 719.29 162.18 L 722.91 161.91 L 725.32 162.03 L 727.60 162.43 L 729.78 163.10 L 731.81 164.08 L 733.63 165.37 L 735.24 167.01 L 735.24 167.07 L 736.86 165.45 L 738.67 164.16 L 740.72 163.19 L 742.90 162.53 L 745.18 162.13 L 747.60 161.99 L 751.22 162.26 L 754.79 163.02 L 758.19 164.24 L 761.19 165.82 L 757.73 165.57 L 754.26 165.78 L 750.75 166.45 L 747.36 167.58 L 744.23 169.13 L 741.35 171.12 L 738.83 173.53 L 736.80 176.35 L 735.24 179.63 L 735.24 179.63 Z" fill="url(#linearGradient-4)" fill-rule="nonzero" group-id="2,10" id="路径" node-id="96" stroke="none" target-height="17.723465" target-width="51.89435" target-x="709.2949" target-y="161.90717"/><path d="M 840.72 220.07 L 840.72 220.03 L 839.64 217.74 L 838.24 215.78 L 836.49 214.10 L 834.49 212.72 L 832.33 211.64 L 829.98 210.86 L 827.54 210.40 L 825.13 210.27 L 822.74 210.45 L 825.58 209.05 L 828.83 208.11 L 831.09 207.81 L 833.28 207.83 L 835.42 208.14 L 837.44 208.81 L 839.19 209.87 L 840.72 211.32 L 840.72 211.36 L 842.25 209.92 L 844.01 208.88 L 846.04 208.21 L 848.18 207.89 L 850.37 207.87 L 852.64 208.17 L 855.89 209.09 L 858.71 210.49 L 856.31 210.32 L 853.91 210.47 L 851.47 210.93 L 849.12 211.71 L 846.95 212.79 L 844.95 214.17 L 843.21 215.84 L 841.80 217.80 L 840.72 220.07 Z" fill="url(#linearGradient-5)" fill-rule="nonzero" group-id="2,10" id="路径" node-id="97" stroke="none" target-height="12.253891" target-width="35.97455" target-x="822.7358" target-y="207.81491"/><path d="M 54.17 676.40 L 46.31 673.15 L 39.62 670.96 L 33.98 669.65 L 29.22 669.06 L 25.22 669.09 L 21.85 669.63 L 19.01 670.62 L 16.61 672.02 L 14.57 673.84 L 12.87 676.12 L 11.49 678.95 L 10.46 682.41 L 9.83 686.65 L 9.69 691.81 L 10.13 698.04 L 11.38 702.83 L 12.85 706.65 L 14.50 709.65 L 16.30 711.97 L 18.25 713.71 L 20.37 714.95 L 26.36 722.62 L 31.07 729.37 L 34.66 735.30 L 37.29 740.50 L 39.10 745.06 L 40.22 749.05 L 40.74 752.57 L 41.38 756.82 L 42.65 761.06 L 43.86 763.77 L 45.39 766.32 L 47.25 768.71 L 49.40 770.83 L 51.92 772.66 L 54.86 774.21 L 57.99 775.32 L 61.61 776.02 L 65.81 776.27 L 70.00 776.00 L 74.83 775.14 L 80.40 773.58 L 84.89 772.39 L 88.96 771.89 L 92.70 772.01 L 96.17 772.70 L 99.42 773.96 L 102.51 775.81 L 105.46 778.30 L 108.29 781.52 L 111.01 785.58 L 113.59 790.62 L 116.01 796.79 L 118.24 804.26 L 122.58 809.52 L 127.33 814.33 L 132.49 818.70 L 138.10 822.66 L 144.17 826.21 L 150.76 829.34 L 157.88 832.05 L 165.60 834.33 L 173.97 836.14 L 183.02 837.47 L 192.83 838.28 L 203.45 838.53 L 214.94 838.17 L 227.37 837.15 L 236.45 835.90 L 243.77 834.35 L 249.57 832.57 L 254.09 830.61 L 257.56 828.53 L 260.15 826.35 L 262.01 824.07 L 263.25 821.66 L 263.92 819.07 L 264.04 816.24 L 263.54 813.09 L 262.33 809.52 L 260.26 805.46 L 257.15 800.79 L 252.78 795.44 L 246.90 789.30 L 239.25 782.28 L 229.54 774.27 L 217.44 765.15 L 204.81 760.39 L 194.77 757.02 L 186.92 754.79 L 180.90 753.48 L 178.55 752.82 L 176.46 751.73 L 174.61 750.18 L 172.95 748.13 L 171.50 745.46 L 170.27 742.07 L 169.32 737.80 L 168.72 732.49 L 168.54 725.97 L 168.30 722.74 L 167.56 719.75 L 166.34 716.95 L 164.60 714.29 L 162.30 711.76 L 159.36 709.34 L 155.68 707.04 L 151.15 704.87 L 145.62 702.86 L 140.07 700.80 L 135.70 698.61 L 132.32 696.31 L 129.77 693.92 L 127.92 691.44 L 126.69 688.83 L 126.02 686.05 L 125.92 683.03 L 126.42 679.72 L 123.31 675.61 L 120.24 672.42 L 117.22 670.03 L 114.21 668.32 L 111.18 667.22 L 108.10 666.69 L 104.92 666.72 L 101.58 667.32 L 98.02 668.56 L 94.21 670.52 L 90.08 673.31 L 85.35 676.59 L 81.00 679.01 L 76.97 680.69 L 73.23 681.71 L 69.73 682.15 L 66.41 682.06 L 63.24 681.45 L 60.16 680.33 L 57.15 678.67 L 54.17 676.40 Z" fill="url(#linearGradient-6)" fill-rule="nonzero" group-id="2,11,17" id="路径-61" node-id="99" stroke="none" target-height="171.83588" target-width="254.35231" target-x="9.685375" target-y="666.6941"/><path d="M 52.64 691.51 L 100.91 723.73 L 98.81 713.79 L 96.63 705.35 L 94.38 698.25 L 92.09 692.33 L 91.09 689.81 L 91.12 689.73 L 92.59 692.66 L 95.51 699.39 L 98.87 708.18 L 100.42 712.86 L 101.67 717.31 L 102.56 721.63 L 102.89 725.05 L 143.13 751.91 L 143.02 751.75 L 143.55 740.36 L 143.57 731.42 L 143.20 724.53 L 142.54 719.35 L 141.68 715.55 L 142.40 717.00 L 143.28 720.05 L 144.00 723.56 L 144.70 728.00 L 145.71 737.49 L 146.00 742.32 L 146.10 746.65 L 145.98 750.71 L 145.64 753.59 L 182.66 778.29 L 182.32 777.88 L 182.59 775.54 L 183.06 769.84 L 183.22 762.80 L 183.00 759.30 L 182.54 756.41 L 183.07 757.51 L 183.67 760.01 L 184.50 766.44 L 184.92 773.69 L 184.84 779.75 L 215.39 800.14 L 211.52 804.01 L 179.98 781.68 L 177.03 783.20 L 173.95 784.44 L 170.75 785.40 L 165.90 786.41 L 161.44 786.93 L 157.21 787.09 L 154.12 786.94 L 160.72 786.08 L 166.15 784.88 L 170.59 783.39 L 174.16 781.67 L 177.02 779.75 L 178.31 780.68 L 179.52 781.35 L 90.70 718.45 L 91.26 719.14 L 84.51 719.87 L 78.13 720.12 L 72.10 719.91 L 66.39 719.27 L 60.97 718.21 L 55.82 716.76 L 56.13 716.55 L 56.97 716.48 L 58.76 716.74 L 65.80 718.00 L 70.42 718.54 L 76.13 718.75 L 80.03 718.60 L 84.29 718.10 L 88.93 717.21 L 52.64 691.51 Z M 93.97 768.36 L 97.97 768.19 L 102.46 767.40 L 107.51 765.89 L 113.21 763.55 L 119.65 760.24 L 126.93 755.82 L 135.14 750.09 L 137.36 752.31 L 131.86 756.32 L 126.51 759.68 L 121.29 762.42 L 115.88 764.77 L 110.87 766.51 L 106.24 767.69 L 101.50 768.43 L 97.44 768.63 L 93.97 768.36 Z" fill="url(#linearGradient-7)" fill-rule="nonzero" group-id="2,11,18" id="形状结合" node-id="100" stroke="none" target-height="114.27649" target-width="162.75137" target-x="52.63862" target-y="689.7334"/><path d="M 89.57 607.28 L 82.12 602.51 L 75.77 599.03 L 70.37 596.62 L 65.80 595.11 L 61.93 594.33 L 58.65 594.17 L 55.86 594.51 L 53.45 595.31 L 51.37 596.55 L 49.55 598.24 L 47.96 600.45 L 46.63 603.29 L 45.57 606.88 L 44.85 611.37 L 44.56 616.95 L 44.79 623.79 L 47.76 635.24 L 50.12 645.00 L 52.02 654.32 L 53.15 662.44 L 53.51 667.75 L 53.45 672.78 L 53.01 677.56 L 52.72 680.49 L 52.68 683.80 L 52.93 687.54 L 53.48 691.23 L 54.40 695.11 L 55.71 699.21 L 57.38 703.18 L 59.52 707.16 L 62.18 711.19 L 65.22 714.94 L 68.87 718.57 L 73.19 722.09 L 76.61 724.41 L 80.45 726.59 L 84.76 728.63 L 89.57 730.51 L 95.67 732.89 L 100.51 735.31 L 104.28 737.72 L 107.14 740.14 L 109.24 742.55 L 110.71 744.98 L 111.60 747.45 L 111.98 750.01 L 111.84 752.72 L 111.13 755.63 L 109.79 758.80 L 107.69 762.30 L 107.18 765.73 L 107.24 768.99 L 107.83 772.13 L 108.96 775.18 L 110.68 778.19 L 113.05 781.20 L 116.17 784.21 L 120.16 787.24 L 125.15 790.27 L 131.31 793.31 L 138.79 796.33 L 147.79 799.31 L 158.50 802.22 L 171.14 805.02 L 185.91 807.68 L 198.13 809.43 L 208.17 810.47 L 216.32 810.92 L 222.64 810.93 L 227.87 810.64 L 232.15 810.10 L 235.60 809.36 L 239.17 808.18 L 241.93 806.84 L 244.03 805.35 L 245.59 803.73 L 246.82 801.79 L 247.65 799.68 L 248.08 797.36 L 248.10 794.78 L 247.61 791.36 L 246.59 787.54 L 244.95 783.26 L 241.91 776.93 L 237.97 769.93 L 228.97 755.52 L 223.45 749.62 L 219.47 744.63 L 217.17 741.24 L 215.38 738.13 L 214.02 735.26 L 212.47 730.83 L 211.56 726.58 L 211.10 722.28 L 210.98 717.80 L 211.18 714.69 L 211.68 711.18 L 212.75 703.81 L 212.93 700.01 L 212.61 696.23 L 212.05 693.77 L 211.08 691.36 L 209.69 688.97 L 207.95 686.82 L 205.56 684.69 L 202.42 682.57 L 199.04 680.84 L 194.70 679.16 L 189.22 677.56 L 185.70 676.49 L 182.51 674.97 L 179.61 673.00 L 176.97 670.54 L 174.56 667.55 L 172.40 663.95 L 170.49 659.68 L 168.87 654.61 L 167.57 648.66 L 166.65 641.69 L 166.16 633.59 L 165.36 630.57 L 164.13 628.02 L 162.48 625.88 L 160.39 624.08 L 157.78 622.61 L 154.55 621.49 L 150.58 620.77 L 145.73 620.53 L 139.84 620.86 L 132.72 621.90 L 124.19 623.79 L 120.64 624.23 L 117.08 624.17 L 113.50 623.61 L 109.84 622.52 L 106.09 620.87 L 102.21 618.61 L 98.18 615.64 L 93.97 611.90 L 89.57 607.28 Z" fill="url(#linearGradient-8)" fill-rule="nonzero" group-id="2,11" id="路径-65" node-id="101" stroke="none" target-height="216.76538" target-width="203.54153" target-x="44.558296" target-y="594.168"/><path d="M 74.94 624.74 L 110.38 669.80 L 110.45 669.63 L 112.15 664.88 L 113.30 660.18 L 113.94 655.50 L 114.07 650.82 L 113.69 646.11 L 112.80 641.35 L 112.72 641.04 L 112.73 641.08 L 114.67 646.87 L 115.51 650.05 L 116.08 653.65 L 116.20 657.44 L 115.67 661.87 L 114.96 664.84 L 113.80 668.21 L 112.12 672.01 L 142.15 710.19 L 142.34 709.92 L 144.95 705.70 L 147.13 701.02 L 148.89 695.81 L 150.20 690.03 L 151.02 683.61 L 151.30 676.46 L 151.71 678.46 L 151.97 682.22 L 151.91 686.42 L 151.45 691.61 L 150.55 696.95 L 149.07 702.49 L 147.74 706.11 L 146.10 709.52 L 144.14 712.73 L 170.75 746.55 L 173.02 742.51 L 174.29 739.67 L 175.48 736.17 L 176.31 732.45 L 176.63 728.40 L 176.98 731.31 L 177.09 734.61 L 176.84 738.01 L 176.10 741.66 L 175.31 744.05 L 174.20 746.52 L 172.74 749.08 L 212.00 799.00 L 205.77 799.00 L 167.82 748.45 L 163.16 750.26 L 159.08 751.56 L 155.50 752.43 L 150.20 753.24 L 145.94 753.38 L 141.97 753.05 L 138.86 752.43 L 136.06 751.55 L 134.01 750.70 L 138.18 751.48 L 142.43 751.78 L 146.77 751.61 L 151.25 750.94 L 155.88 749.76 L 160.70 748.01 L 165.73 745.66 L 136.86 707.22 L 137.36 708.13 L 130.09 710.39 L 123.00 712.07 L 115.94 713.23 L 109.43 713.82 L 103.13 713.88 L 97.74 713.41 L 94.27 712.76 L 91.39 711.90 L 89.00 710.87 L 92.28 711.85 L 96.10 712.49 L 100.56 712.73 L 105.76 712.51 L 111.78 711.76 L 118.75 710.37 L 126.77 708.26 L 135.98 705.31 L 135.55 705.46 L 103.38 662.62 L 103.56 663.14 L 98.17 663.21 L 93.20 662.74 L 88.59 661.78 L 84.31 660.34 L 80.30 658.43 L 76.55 656.02 L 73.03 653.11 L 69.72 649.65 L 70.21 649.61 L 71.49 650.37 L 75.34 653.19 L 78.00 654.89 L 81.52 656.74 L 85.43 658.33 L 90.28 659.67 L 93.67 660.26 L 97.51 660.58 L 101.86 660.61 L 74.94 624.74 Z" fill="url(#linearGradient-9)" fill-rule="nonzero" group-id="2,11,19" id="形状结合" node-id="102" stroke="none" target-height="174.25714" target-width="142.27757" target-x="69.724396" target-y="624.74286"/><path d="M 199.20 608.75 L 202.76 604.29 L 205.99 601.10 L 208.92 598.96 L 211.62 597.66 L 214.16 597.07 L 216.59 597.08 L 219.00 597.70 L 221.46 598.99 L 224.02 601.05 L 226.71 604.09 L 229.55 608.32 L 232.55 614.01 L 233.68 619.31 L 234.29 624.01 L 235.21 632.61 L 235.70 635.21 L 236.44 637.65 L 237.45 639.95 L 238.77 642.06 L 240.63 644.14 L 243.12 646.20 L 245.87 647.92 L 249.56 649.70 L 254.37 651.51 L 258.45 653.12 L 261.68 654.90 L 264.19 656.83 L 266.10 658.90 L 267.48 661.13 L 268.38 663.55 L 268.82 666.22 L 268.75 669.19 L 268.13 672.54 L 266.85 676.35 L 264.79 680.69 L 261.81 685.66 L 260.43 689.47 L 259.82 692.72 L 259.83 695.50 L 260.38 697.91 L 261.45 700.06 L 263.07 701.98 L 265.34 703.72 L 268.38 705.26 L 272.39 706.57 L 275.08 707.52 L 277.09 708.76 L 278.58 710.27 L 279.60 712.08 L 280.18 714.27 L 280.28 716.94 L 279.77 720.24 L 278.52 724.30 L 276.32 729.29 L 272.94 735.39 L 268.12 742.79 L 265.93 748.48 L 264.73 753.10 L 264.31 756.84 L 264.52 759.86 L 265.25 762.32 L 266.44 764.33 L 268.12 765.99 L 270.46 767.98 L 273.22 770.93 L 274.92 773.15 L 276.55 775.79 L 278.11 778.91 L 279.33 782.15 L 280.26 785.88 L 280.87 790.15 L 281.00 794.45 L 280.60 799.34 L 279.59 804.90 L 278.06 810.31 L 275.71 816.44 L 272.39 823.38 L 270.25 826.95 L 268.03 829.95 L 265.73 832.44 L 263.35 834.47 L 259.79 836.76 L 256.15 838.39 L 252.38 839.40 L 248.48 839.88 L 244.54 839.88 L 240.53 839.40 L 236.57 838.52 L 232.69 837.29 L 228.86 835.72 L 223.40 832.87 L 218.44 829.59 L 213.95 825.93 L 210.32 822.27 L 208.21 819.63 L 206.65 817.21 L 205.56 814.98 L 204.55 811.71 L 203.94 808.32 L 203.73 804.78 L 203.96 799.43 L 204.65 793.97 L 206.48 783.35 L 207.18 778.26 L 207.40 773.74 L 207.18 770.83 L 206.56 768.26 L 205.56 765.99 L 204.30 764.32 L 202.54 762.64 L 200.18 760.95 L 196.34 758.62 L 191.83 756.10 L 187.25 753.44 L 182.68 750.43 L 179.81 748.18 L 177.21 745.69 L 174.89 742.94 L 172.98 739.92 L 171.55 736.51 L 170.61 732.62 L 170.33 729.69 L 170.44 726.40 L 170.98 722.68 L 172.01 718.47 L 174.60 714.63 L 177.14 711.33 L 179.63 708.15 L 181.78 705.12 L 183.01 703.02 L 183.98 700.81 L 184.68 698.45 L 185.05 696.03 L 185.03 693.23 L 184.58 689.97 L 183.76 686.79 L 182.34 682.94 L 180.22 678.31 L 177.38 672.97 L 175.21 669.25 L 171.88 663.77 L 170.88 661.72 L 170.47 660.09 L 170.55 658.44 L 171.23 656.43 L 172.38 654.25 L 174.39 651.03 L 180.22 642.12 L 183.51 638.32 L 187.04 633.31 L 190.83 626.88 L 194.88 618.79 L 199.20 608.75 Z" fill="url(#linearGradient-10)" fill-rule="nonzero" group-id="2,11" id="路径-96" node-id="103" stroke="none" target-height="242.81262" target-width="110.666794" target-x="170.33482" target-y="597.06616"/><path d="M 216.11 638.51 L 227.46 695.42 L 233.00 686.91 L 237.42 679.40 L 240.85 672.79 L 243.42 666.99 L 244.50 664.50 L 244.57 664.46 L 243.54 667.58 L 240.85 674.40 L 237.01 682.99 L 234.79 687.39 L 232.53 691.42 L 230.11 695.11 L 227.92 697.76 L 237.38 745.21 L 237.42 745.02 L 245.84 737.34 L 252.18 731.03 L 256.79 725.90 L 259.99 721.76 L 262.07 718.47 L 261.54 720.00 L 260.01 722.78 L 258.04 725.77 L 255.40 729.40 L 249.40 736.83 L 246.20 740.45 L 243.20 743.59 L 240.24 746.37 L 237.97 748.17 L 246.68 791.81 L 246.73 791.28 L 248.58 789.82 L 252.94 786.12 L 258.03 781.25 L 260.35 778.62 L 262.07 776.25 L 261.66 777.41 L 260.32 779.60 L 256.36 784.74 L 251.53 790.16 L 247.19 794.39 L 254.37 830.40 L 248.90 830.40 L 242.39 792.31 L 239.23 791.30 L 236.18 790.00 L 233.23 788.41 L 229.08 785.70 L 225.57 782.92 L 222.47 780.04 L 220.38 777.75 L 225.65 781.81 L 230.35 784.80 L 234.53 786.88 L 238.28 788.20 L 241.66 788.86 L 241.92 790.42 L 242.29 791.75 L 223.96 684.47 L 223.87 685.35 L 218.58 681.10 L 213.90 676.76 L 209.79 672.35 L 206.20 667.86 L 203.11 663.29 L 200.50 658.61 L 200.87 658.69 L 201.50 659.23 L 202.59 660.68 L 206.68 666.55 L 209.57 670.20 L 213.45 674.38 L 216.32 677.04 L 219.68 679.69 L 223.60 682.34 L 216.11 638.51 Z M 190.99 722.08 L 193.94 724.79 L 197.67 727.40 L 202.31 729.90 L 207.99 732.28 L 214.89 734.50 L 223.17 736.51 L 233.02 738.27 L 233.02 741.41 L 226.29 740.36 L 220.14 738.94 L 214.51 737.20 L 209.01 735.03 L 204.25 732.72 L 200.14 730.27 L 196.26 727.45 L 193.25 724.72 L 190.99 722.08 Z" fill="url(#linearGradient-7)" fill-rule="nonzero" group-id="2,11" id="形状结合" node-id="104" stroke="none" target-height="191.89795" target-width="71.08055" target-x="190.9868" target-y="638.50665"/><path d="M 938.40 787.52 L 938.95 781.38 L 938.93 776.07 L 938.44 771.49 L 937.51 767.55 L 936.21 764.15 L 934.55 761.23 L 932.54 758.73 L 930.16 756.60 L 927.38 754.81 L 924.14 753.38 L 920.38 752.30 L 916.00 751.63 L 920.95 751.41 L 925.50 751.63 L 929.69 752.27 L 933.56 753.29 L 937.14 754.69 L 940.61 756.53 L 943.72 758.70 L 946.51 761.19 L 948.98 764.04 L 951.16 767.26 L 952.93 770.65 L 954.34 774.33 L 955.40 778.35 L 956.09 782.73 L 956.38 787.52 L 948.50 787.65 L 938.40 787.52 Z" fill="url(#linearGradient-11)" fill-rule="nonzero" group-id="2,12" id="路径-38" node-id="106" stroke="none" target-height="36.23767" target-width="40.382324" target-x="916" target-y="751.40936"/><path d="M 950.12 787.65 L 951.21 781.17 L 951.68 775.22 L 951.58 769.76 L 950.96 764.72 L 949.84 760.06 L 948.24 755.73 L 946.18 751.69 L 943.62 747.92 L 940.56 744.39 L 936.95 741.08 L 932.73 738.00 L 937.89 739.74 L 942.70 741.69 L 947.18 743.86 L 951.44 746.39 L 955.38 749.38 L 959.04 752.83 L 961.47 755.66 L 963.76 758.90 L 965.90 762.60 L 967.90 766.80 L 969.51 771.00 L 970.97 775.83 L 972.27 781.35 L 973.37 787.65 L 967.00 787.95 L 959.31 787.97 L 950.12 787.65 Z" fill="url(#linearGradient-12)" fill-rule="nonzero" group-id="2,12" id="路径-39" node-id="107" stroke="none" target-height="49.96985" target-width="40.642517" target-x="932.73065" target-y="738"/><path d="M 977.07 788.00 L 976.73 781.72 L 976.99 776.27 L 977.76 771.55 L 978.98 767.46 L 980.63 763.91 L 982.67 760.84 L 985.13 758.18 L 988.03 755.92 L 991.43 754.02 L 995.39 752.50 L 1000.00 751.39 L 995.13 751.29 L 990.16 751.39 L 986.86 751.67 L 983.55 752.24 L 980.22 753.13 L 977.02 754.38 L 973.78 756.16 L 970.49 758.54 L 967.52 761.30 L 964.47 764.91 L 961.33 769.53 L 958.63 774.39 L 955.86 780.48 L 953.05 788.00 L 968.31 787.74 L 977.07 788.00 Z" fill="none" group-id="2,12" id="路径-40" node-id="108" stroke="none" target-height="36.707947" target-width="46.94806" target-x="953.05194" target-y="751.29205"/><path d="M 927.41 802.00 L 933.64 801.98 L 939.14 801.82 L 942.72 801.51 L 945.83 800.97 L 948.52 800.23 L 951.03 799.11 L 953.09 797.60 L 954.75 795.68 L 955.66 794.05 L 956.36 792.05 L 956.82 789.60 L 957.00 786.61 L 956.71 782.68 L 955.91 778.99 L 954.60 775.47 L 952.83 772.16 L 950.66 769.14 L 948.07 766.38 L 945.15 763.97 L 941.92 761.92 L 938.37 760.25 L 934.64 759.03 L 930.70 758.27 L 926.50 758.00 L 922.30 758.27 L 918.36 759.03 L 914.63 760.25 L 911.08 761.92 L 907.85 763.97 L 904.93 766.38 L 902.34 769.14 L 900.17 772.16 L 898.40 775.47 L 897.09 778.99 L 896.29 782.68 L 896.00 786.61 L 896.20 789.58 L 896.72 792.02 L 897.51 794.03 L 898.54 795.68 L 900.37 797.58 L 902.63 799.10 L 905.39 800.23 L 908.32 800.98 L 911.64 801.51 L 915.40 801.82 L 921.13 801.98 L 927.41 802.00 Z" fill="url(#linearGradient-14)" fill-rule="nonzero" group-id="2,12" id="椭圆形" node-id="109" stroke="none" target-height="43.999023" target-width="61" target-x="896" target-y="758"/><path d="M 960.57 802.00 L 967.88 801.89 L 971.11 801.55 L 973.72 800.91 L 975.28 800.22 L 976.56 799.30 L 977.60 798.12 L 978.32 796.74 L 978.81 794.92 L 979.00 792.56 L 978.68 789.36 L 977.82 786.43 L 976.41 783.69 L 974.53 781.25 L 972.27 779.15 L 969.59 777.40 L 966.66 776.10 L 963.48 775.30 L 960.00 775.00 L 956.52 775.30 L 953.34 776.10 L 950.41 777.40 L 947.73 779.15 L 945.47 781.25 L 943.59 783.69 L 942.18 786.43 L 941.32 789.36 L 941.00 792.56 L 941.21 794.91 L 941.76 796.73 L 942.58 798.12 L 943.72 799.29 L 945.13 800.22 L 946.85 800.91 L 949.68 801.55 L 953.08 801.89 L 960.57 802.00 Z" fill="url(#linearGradient-15)" fill-rule="nonzero" group-id="2,12" id="椭圆形备份-6" node-id="110" stroke="none" target-height="26.99939" target-width="38" target-x="941" target-y="775"/></g><g node-id="359"><path d="M 354.09 776.39 L 364.86 778.16 L 371.93 779.61 L 377.80 781.24 L 380.69 782.48 L 382.06 783.51 L 382.47 784.32 L 382.31 785.06 L 381.70 785.76 L 380.57 786.54 L 378.68 787.42 L 375.64 788.49 L 371.75 789.63 L 363.41 791.76 L 357.29 793.45 L 352.82 794.95 L 349.68 796.27 L 346.72 797.93 L 345.02 799.34 L 344.18 800.54 L 343.85 801.89 L 344.08 803.21 L 344.95 804.59 L 346.95 806.44 L 350.06 808.45 L 353.56 810.28 L 357.56 812.15 L 360.62 813.29 L 365.89 814.75 L 374.22 816.58 L 387.45 818.93 L 405.84 821.58 L 425.91 823.92 L 450.39 826.22 L 476.28 828.08 L 505.86 829.59 L 526.00 830.26 L 547.43 830.66 L 570.21 830.76 L 592.95 830.52 L 616.68 829.87 L 641.42 828.82 L 666.10 827.34 L 691.45 825.35 L 717.47 822.84 L 738.58 820.40 L 756.83 817.95 L 772.49 815.52 L 788.08 812.71 L 801.13 809.98 L 811.92 807.34 L 822.62 804.26 L 831.10 801.36 L 837.69 798.65 L 842.67 796.19 L 846.56 793.90 L 849.53 791.78 L 851.74 789.80 L 853.77 787.41 L 855.09 785.21 L 855.81 783.14 L 856.02 781.15 L 855.79 779.12 L 855.14 777.11 L 854.06 775.09 L 852.46 773.04 L 849.99 770.63 L 846.87 768.22 L 843.01 765.83 L 838.98 763.73 L 834.52 761.74 L 829.61 759.86 L 821.91 757.48 L 809.45 754.35 L 795.38 751.35 L 777.07 747.94 L 757.36 744.73 L 733.93 741.41 L 709.30 738.41 L 681.48 735.56 L 652.66 733.16 L 621.17 731.17 L 599.89 730.18 L 577.66 729.46 L 554.47 729.04 L 531.30 728.97 L 507.42 729.27 L 482.82 729.96 L 445.44 731.66 L 415.70 733.59 L 396.72 735.19 L 380.98 736.78 L 368.11 738.36 L 355.28 740.25 L 345.42 742.00 L 338.03 743.62 L 330.67 745.66 L 326.07 747.36 L 323.44 748.75 L 318.71 752.05 L 315.34 755.00 L 313.55 757.16 L 312.60 759.11 L 312.31 760.91 L 312.52 762.20 L 313.18 763.52 L 314.41 764.93 L 316.39 766.45 L 319.23 768.02 L 323.51 769.74 L 329.63 771.62 L 335.82 773.13 L 343.87 774.72 L 354.09 776.39 Z" fill="url(#linearGradient-16)" fill-opacity="0.4" fill-rule="nonzero" group-id="3" id="路径" node-id="111" stroke="none" target-height="101.793335" target-width="543.7078" target-x="312.30914" target-y="728.9659"/></g><g node-id="360"><g node-id="369"><path d="M 398.01 542.31 L 615.41 514.96 L 615.41 623.42 L 401.48 648.41 Z" fill="url(#linearGradient-17)" fill-rule="nonzero" group-id="4,13" node-id="345" stroke="none" target-height="133.45288" target-width="217.39911" target-x="398.0119" target-y="514.95874"/><path d="M 787.61 550.35 L 615.44 514.96 L 615.41 636.91 L 784.61 672.09 Z" fill="url(#linearGradient-18)" fill-rule="nonzero" group-id="4,13" node-id="347" stroke="none" target-height="157.13007" target-width="172.19733" target-x="615.411" target-y="514.95874"/><path d="M 585.28 597.12 L 400.16 549.40 L 400.16 775.04 L 585.28 822.76 Z" fill="url(#linearGradient-19)" fill-rule="nonzero" group-id="4,13" node-id="349" stroke="none" target-height="273.36328" target-width="185.11212" target-x="400.16437" target-y="549.3982"/><path d="M 785.46 555.86 L 583.12 596.21 L 584.30 822.76 L 785.46 777.83 Z" fill="url(#linearGradient-20)" fill-rule="nonzero" group-id="4,13" node-id="351" stroke="none" target-height="266.90588" target-width="202.33185" target-x="583.124" target-y="555.8556"/><path d="M 583.12 597.14 L 787.25 553.70 L 803.59 625.10 L 596.00 674.24 Z" fill="url(#linearGradient-21)" fill-rule="nonzero" group-id="4,13" node-id="353" stroke="none" target-height="120.53674" target-width="220.46753" target-x="583.124" target-y="553.7031"/><path d="M 583.12 596.15 L 397.83 545.09 L 350.66 624.55 L 528.13 682.85 Z" fill="url(#linearGradient-22)" fill-rule="nonzero" group-id="4,13" node-id="355" stroke="none" target-height="137.75787" target-width="232.46637" target-x="350.65765" target-y="545.09326"/></g></g><g node-id="361"><path d="M 483.19 389.00 L 501.01 392.44 L 515.87 395.87 L 528.14 399.24 L 538.13 402.55 L 546.14 405.77 L 552.47 408.87 L 557.36 411.86 L 561.04 414.72 L 563.72 417.47 L 565.58 420.13 L 566.74 422.73 L 567.29 425.31 L 567.27 427.94 L 566.67 430.69 L 565.40 433.61 L 563.35 436.77 L 560.37 440.22 L 556.24 444.00 L 550.76 448.15 L 543.67 452.71 L 518.54 467.59 L 506.53 474.83 L 495.65 481.70 L 488.61 486.41 L 482.36 490.93 L 476.85 495.24 L 471.59 499.88 L 467.35 504.27 L 464.02 508.44 L 461.86 511.85 L 460.35 515.14 L 459.42 518.34 L 459.01 521.48 L 459.17 524.62 L 459.95 527.81 L 461.43 531.12 L 463.69 534.59 L 466.29 537.60 L 469.76 540.82 L 474.24 544.27 L 479.93 547.97 L 485.48 551.11 L 492.18 554.45 L 500.16 558.02 L 509.57 561.82 L 520.12 565.23 L 532.56 568.66 L 547.14 572.08 L 564.07 575.46 L 583.60 578.78 L 606.00 582.00" fill="none" group-id="5" id="路径-33" node-id="121" stroke="url(#linearGradient-23)" stroke-dasharray="2 2" stroke-linecap="butt" stroke-width="1" target-height="193" target-width="146.98846" target-x="459.01154" target-y="389"/><path d="M 463.62 534.31 L 466.20 537.34 L 469.67 540.59 L 474.15 544.06 L 479.84 547.78 L 485.41 550.95 L 492.12 554.32 L 500.12 557.92 L 509.57 561.74 L 520.12 565.17 L 532.57 568.61 L 547.14 572.04 L 564.07 575.44 L 583.60 578.77 L 606.00 582.00" fill="none" group-id="5" id="路径" node-id="122" stroke="#ffffff" stroke-dasharray="4 4" stroke-linecap="round" stroke-width="1" target-height="47.691345" target-width="142.38376" target-x="463.61624" target-y="534.30865"/><g node-id="370"><path d="M 451.67 382.44 L 441.37 394.38 L 405.78 361.16 L 471.59 359.80 L 462.70 370.86 L 414.83 363.87 L 458.45 376.10 L 466.92 386.34 Z" fill="url(#linearGradient-24)" fill-rule="nonzero" group-id="5,14" id="路径" node-id="123" stroke="none" target-height="34.58197" target-width="65.810425" target-x="405.77682" target-y="359.7989"/></g></g><g node-id="362"><g node-id="371"><path d="M 688.39 812.01 L 689.33 815.54 L 690.00 818.14 L 690.04 819.27 L 689.77 820.43 L 689.05 821.58 L 687.67 822.87 L 685.99 823.96 L 684.12 824.81 L 682.20 825.27 L 680.57 825.20 L 676.04 824.00 L 671.36 822.64 L 668.18 821.70 L 665.08 820.70 L 659.98 818.72 L 657.31 817.43 L 655.01 816.07 L 653.64 815.00 L 652.76 814.01 L 652.26 813.07 L 652.13 811.74 L 652.47 810.59 L 653.32 809.51 L 654.48 808.68 L 656.07 807.97 L 658.17 807.42 L 661.52 807.09 L 665.63 807.34 L 672.33 808.39 L 678.90 809.61 L 683.90 810.63 L 685.89 811.05 L 688.39 812.01 Z" fill="#333333" fill-rule="nonzero" group-id="6,15" id="路径" node-id="125" stroke="none" target-height="18.180908" target-width="37.90808" target-x="652.12854" target-y="807.093"/></g><g node-id="372"><path d="M 748.39 799.01 L 749.33 802.54 L 750.00 805.14 L 750.04 806.27 L 749.77 807.43 L 749.05 808.58 L 747.67 809.87 L 745.99 810.96 L 744.12 811.81 L 742.20 812.27 L 740.57 812.20 L 736.04 811.00 L 731.36 809.64 L 728.18 808.70 L 725.08 807.70 L 719.98 805.72 L 717.31 804.43 L 715.01 803.07 L 713.64 802.00 L 712.76 801.01 L 712.26 800.07 L 712.13 798.74 L 712.47 797.59 L 713.32 796.51 L 714.48 795.68 L 716.07 794.97 L 718.17 794.42 L 721.52 794.09 L 725.63 794.34 L 732.33 795.39 L 738.90 796.61 L 743.90 797.63 L 745.89 798.05 L 748.39 799.01 Z" fill="#333333" fill-rule="nonzero" group-id="6,16" id="路径备份" node-id="126" stroke="none" target-height="18.180908" target-width="37.90808" target-x="712.12854" target-y="794.093"/></g><path d="M 751.21 559.53 L 747.19 551.41 L 742.95 544.16 L 738.48 537.70 L 733.79 531.97 L 728.89 526.92 L 723.77 522.51 L 718.42 518.69 L 712.82 515.45 L 706.94 512.75 L 700.76 510.60 L 694.25 508.99 L 687.38 507.93 L 680.09 507.44 L 672.35 507.56 L 664.12 508.31 L 655.35 509.76 L 645.99 511.96 L 635.99 514.96 L 629.03 517.33 L 622.16 520.27 L 615.36 523.80 L 608.63 527.95 L 601.94 532.75 L 595.29 538.23 L 588.67 544.44 L 582.07 551.43 L 575.49 559.24 L 568.93 567.95 L 562.39 577.60 L 555.88 588.26 L 584.62 597.04 L 751.21 559.53 Z" fill="url(#linearGradient-25)" fill-rule="nonzero" group-id="6" id="路径-115" node-id="127" stroke="none" target-height="89.59854" target-width="195.32959" target-x="555.87775" target-y="507.4388"/><path d="M 765.26 584.19 L 762.70 576.38 L 759.81 569.41 L 756.61 563.20 L 753.11 557.70 L 749.32 552.83 L 745.25 548.56 L 740.88 544.83 L 736.19 541.63 L 731.16 538.93 L 725.75 536.72 L 719.94 535.00 L 713.67 533.80 L 706.89 533.14 L 699.55 533.05 L 691.59 533.58 L 682.95 534.79 L 678.45 535.06 L 674.19 535.66 L 670.17 536.58 L 666.35 537.82 L 661.41 539.95 L 656.83 542.49 L 652.59 545.44 L 648.63 548.78 L 645.02 552.37 L 641.74 556.21 L 638.77 560.30 L 636.16 564.45 L 633.90 568.68 L 631.93 573.05 L 630.35 577.28 L 629.14 581.39 L 628.22 585.58 L 627.70 589.40 L 627.53 592.89 L 626.96 598.33 L 626.68 607.47 L 626.80 617.70 L 627.35 630.70 L 628.28 644.46 L 629.68 660.10 L 631.49 676.18 L 633.81 693.23 L 636.58 710.39 L 639.85 727.60 L 642.34 739.03 L 645.04 750.07 L 647.95 760.75 L 651.19 771.34 L 654.62 781.14 L 658.22 790.21 L 661.26 796.98 L 664.38 803.10 L 667.56 808.59 L 670.80 813.52 L 673.95 815.36 L 676.37 816.99 L 678.63 818.44 L 680.46 819.28 L 681.66 819.49 L 682.91 819.31 L 684.26 818.69 L 685.48 817.74 L 687.03 816.10 L 688.98 813.52 L 690.10 801.90 L 692.09 783.12 L 694.52 759.12 L 696.97 731.79 L 698.06 717.51 L 699.00 703.07 L 699.73 688.68 L 700.19 674.86 L 700.33 661.32 L 700.10 649.08 L 699.42 637.36 L 698.31 627.64 L 699.14 626.29 L 699.54 625.18 L 699.90 623.59 L 700.08 623.37 L 700.56 623.69 L 702.73 626.30 L 703.30 628.40 L 704.37 633.85 L 706.94 649.27 L 710.21 670.47 L 713.99 695.36 L 718.06 721.85 L 722.23 747.85 L 726.28 771.27 L 728.27 781.70 L 730.01 790.02 L 731.82 797.46 L 733.22 802.02 L 734.50 804.12 L 735.86 805.65 L 737.31 806.71 L 738.95 807.44 L 740.60 807.80 L 742.29 807.81 L 743.96 807.50 L 745.57 806.91 L 747.12 806.02 L 749.15 804.26 L 750.77 802.02 L 756.17 778.73 L 760.69 756.73 L 764.38 735.97 L 767.29 716.38 L 769.47 697.91 L 770.96 680.50 L 771.80 664.11 L 772.03 648.68 L 771.69 634.15 L 770.81 620.49 L 769.43 607.64 L 767.57 595.55 L 765.26 584.19 Z" fill="url(#linearGradient-26)" fill-rule="nonzero" group-id="6" id="路径-116" node-id="128" stroke="none" target-height="286.4475" target-width="145.3498" target-x="626.6764" target-y="533.04663"/></g></svg>