<svg t="1692855275615" class="icon" viewBox="0 0 1024 1024" version="1.1" xmlns="http://www.w3.org/2000/svg" p-id="39417" width="200" height="200"><path d="M283.702 978.19c-64.404 0-126.437-26.57-174.62-74.753-99.543-99.543-99.543-255.46 0-355.058l79.01-79.01 98.682 98.735-78.956 78.956c-21.019 21.02-32.606 47.967-32.606 75.884 0 27.864 11.533 54.81 32.606 75.884 21.02 21.019 47.966 32.606 75.884 32.606 27.863 0 54.81-11.587 75.83-32.606l166.966-166.966c21.019-21.02 32.606-47.966 32.606-75.884 0-25.492-9.54-52.493-26.947-75.991l-46.62-39.505 99.329-99.382 46.35 46.295c44.3 44.356 68.715 106.335 68.715 174.565 0 70.28-26.624 132.366-74.914 174.781l-166.534 166.48c-40.583 46.243-107.574 74.915-174.781 74.915z" fill="#57EEFF" p-id="39418"></path><path d="M374.676 638.545l-0.323-0.324a250.072 250.072 0 0 1-74.698-177.529c0-66.29 26.516-129.347 74.698-177.53l166.966-166.965A250.072 250.072 0 0 1 718.848 41.5c66.344 0 129.401 26.516 177.583 74.698 99.544 99.544 99.544 255.515 0 355.059l-79.01 79.01-98.68-98.682 78.901-79.01c21.02-21.019 32.66-47.966 32.66-75.83a107.25 107.25 0 0 0-32.66-75.883 111.4 111.4 0 0 0-78.093-32.607c-28.565 0-55.296 11.695-73.136 32.068l-0.323 0.43L472.82 382.115c-43.008 42.954-43.008 108.22 0.269 151.444l46.242 46.295-98.089 98.089-46.565-39.397z" fill="#5D94F7" p-id="39419"></path></svg>