<?xml version="1.0" standalone="no"?><!DOCTYPE svg PUBLIC "-//W3C//DTD SVG 1.1//EN" "http://www.w3.org/Graphics/SVG/1.1/DTD/svg11.dtd"><svg t="1724737325536" class="icon" viewBox="0 0 1024 1024" version="1.1" xmlns="http://www.w3.org/2000/svg" p-id="16369" xmlns:xlink="http://www.w3.org/1999/xlink" width="81" height="81"><path d="M573.44 686.08L432.128 582.656l48.128-66.56 108.544 78.848 236.544-324.608-144.384-105.472-94.208 130.048 32.768 23.552-48.128 66.56-66.56-48.128-8.192-57.344L638.976 83.968l57.344-9.216 209.92 152.576 9.216 57.344-284.672 392.192z" fill="#8dd6fe" p-id="16370" data-spm-anchor-id="a313x.search_index.0.i29.68273a81hmu5mE" class=""></path><path d="M327.68 949.248L117.76 796.672l-9.216-57.344 284.672-392.192L450.56 337.92l141.312 103.424-48.128 66.56-108.544-78.848-236.544 324.608 144.384 105.472 94.208-130.048-32.768-23.552 48.128-66.56 66.56 48.128 8.192 57.344-142.336 195.584z" fill="#8a8a8a" p-id="16371" data-spm-anchor-id="a313x.search_index.0.i30.68273a81hmu5mE" class="selected"></path></svg>