<svg t="1692687273624" class="icon" viewBox="0 0 1025 1024" version="1.1" xmlns="http://www.w3.org/2000/svg" p-id="56349" width="200" height="200"><path d="M191.23744 483.2L597.63744 129.6c11.2-8 22.4-8 33.6 0L1018.43744 464c8 8 11.2 20.8 1.6 28.8-4.8 4.8-11.2 6.4-14.4 6.4l-800 20.8c-12.8 0-20.8-8-20.8-20.8 0-6.4 3.2-12.8 6.4-16z" fill="#BAD4FF" p-id="56350"></path><path d="M944.83744 483.2v376c0 59.2-43.2 108.8-96 108.8H365.63744c-52.8 0-140.8-48-140.8-108.8V483.2" fill="#BAD4FF" p-id="56351"></path><path d="M741.63744 950.4H237.63744C168.83744 950.4 112.83744 889.6 112.83744 816V459.2c0-17.6 14.4-32 32-32s32 14.4 32 32V816c0 38.4 25.6 70.4 59.2 70.4h504c32 0 59.2-32 59.2-70.4V459.2c0-17.6 14.4-32 32-32s32 14.4 32 32V816c1.6 73.6-52.8 134.4-121.6 134.4z" fill="#579EF2" p-id="56352"></path><path d="M32.83744 507.2c-8 0-17.6-4.8-24-11.2-12.8-14.4-11.2-33.6 1.6-46.4L453.63744 70.4c20.8-19.2 52.8-19.2 75.2 0l440 380.8c12.8 11.2 14.4 32 4.8 44.8-11.2 12.8-32 14.4-44.8 4.8L488.83744 121.6 53.63744 499.2c-6.4 4.8-14.4 8-20.8 8z m603.2 400h-64v-208c0-32-25.6-59.2-59.2-59.2h-44.8c-32 0-59.2 27.2-59.2 59.2v208h-64v-208c0-68.8 56-123.2 123.2-123.2H512.83744c68.8 0 123.2 56 123.2 123.2v208z" fill="#579EF2" p-id="56353"></path></svg>