<?xml version="1.0" standalone="no"?><!DOCTYPE svg PUBLIC "-//W3C//DTD SVG 1.1//EN" "http://www.w3.org/Graphics/SVG/1.1/DTD/svg11.dtd"><svg t="1724730421020" class="icon" viewBox="0 0 1024 1024" version="1.1" xmlns="http://www.w3.org/2000/svg" p-id="5084" xmlns:xlink="http://www.w3.org/1999/xlink" width="81" height="81"><path d="M345.4 960.2s-99-21.8-151.2-99c-52.3-77.2-104.1-208.7 9.3-407.7C247 377 323.6 327 371 263.2 446.8 161.3 486.2 63.8 486.2 63.8s96.6 60.7 132.6 187.7c36 127 0 279.3 0 279.3s75.6-47.1 107.3-77.2c31.8-30.1 63-84.2 63-84.2S911.5 505 884.5 671C857.5 837 693 960.2 693 960.2s-74.2-19.7-181-139.8c-106.8-120.1-94.9-208.5-94.9-208.5s-57 64-80.7 159c-23.8 94.9 9 189.3 9 189.3z m0 0" fill="#8dd6fe" p-id="5085"></path></svg>