<svg t="1693903152800" class="icon" viewBox="0 0 2048 1024" version="1.1" xmlns="http://www.w3.org/2000/svg" p-id="20468" width="200" height="200"><path d="M953.237152 238.936997h1060.859049c18.704979 0 33.894242 15.291662 33.894242 34.133174 0 6.178105-1.672526 12.287943-4.846911 17.544451l-336.723762 564.699232A135.508701 135.508701 0 0 1 1590.05978 921.600478H546.130785L953.237152 238.936997z" fill="#FF9700" p-id="20469"></path><path d="M1365.326962 375.469693h136.532696l-238.932218 409.598089h-136.532697z" fill="#FFFFFF" p-id="20470"></path><path d="M955.728873 238.936997L546.130785 921.600478h170.66587L1126.394743 238.936997z" fill="#F48000" p-id="20471"></path><path d="M193.67163 170.670649a33.109179 33.109179 0 0 1 28.432934 15.632994l275.693646 457.384532a16.861788 16.861788 0 0 0 28.398801 0l275.693647-457.384532A33.109179 33.109179 0 0 1 830.323592 170.670649h177.287706c9.045291 0 16.383924 6.963168 16.383923 15.530594 0 2.696521-0.75093 5.358908-2.15039 7.679964l-495.613687 822.268163a16.861788 16.861788 0 0 1-28.432934 0L2.184523 193.881207a15.086863 15.086863 0 0 1 6.075705-21.162568A17.066587 17.066587 0 0 1 16.383924 170.670649h177.287706z m504.89791-34.133174c3.310918 0 6.553569 0.955729 9.386623 2.79892a20.616437 20.616437 0 0 1 6.246371 27.033474l-186.57193 336.075232a19.046311 19.046311 0 0 1-6.24637 6.758368 17.476185 17.476185 0 0 1-25.019617-6.758368L309.792688 166.369869A20.923636 20.923636 0 0 1 307.198566 156.232316C307.198566 145.343834 315.390528 136.537475 325.425681 136.537475h373.143859z" fill="#FFD599" p-id="20472"></path><path d="M465.371695 89.536094h93.251831C682.936546-42.320357 745.093056 10.415397 745.093056 10.415397c62.15651 52.735754 51.814158 123.050092-31.061188 210.943015-41.437673 35.157169-93.251831 17.578585-155.408342-52.735754h-93.251831C403.215185 238.936997 351.401027 256.515582 309.963354 221.358412 227.088007 133.465489 216.745655 63.151151 278.902165 10.415397c0 0 62.122377-52.735754 186.46953 79.120697z" fill="#FF9700" p-id="20473"></path></svg>