<svg t="1692686580674" class="icon" viewBox="0 0 1024 1024" version="1.1" xmlns="http://www.w3.org/2000/svg" p-id="29047" width="200" height="200"><path d="M873.58 116.07a25.34 25.34 0 0 0-26.9-0.19L150.73 543.76a25.27 25.27 0 0 0-10.66 30.07c2.75 7.88 9.58 14 18.3 16.34l149 40.29a25.4 25.4 0 0 0 13.25-49l-93.14-25.19L829 186.41l-58 517-308.64-85.79-6.59 3.38-12.6 36.88 3.75 7.58L786.31 760a25.4 25.4 0 0 0 31.9-21.68l67-598a25.54 25.54 0 0 0-11.65-24.27z" fill="#FF5576" p-id="29048"></path><path d="M692.63 430.49A22.58 22.58 0 0 0 661 398.26l-218.94 227.6A22.72 22.72 0 0 0 435.3 642v247.31A22.58 22.58 0 0 0 476.53 902l136.88-200.74a22.58 22.58 0 1 0-37.31-25.44l-95.65 140.29V651.46z" fill="#FF5576" p-id="29049"></path><path d="M164 565.4l271.58 73.45a22.6 22.6 0 0 1 6.44-13L661 398.26a22.58 22.58 0 1 1 31.63 32.23L480.81 651.08l94.7 25.61 0.59-0.87A22.53 22.53 0 0 1 617.27 688L793 735.51l67-598z" fill="#FF5576" p-id="29050"></path></svg>