<?xml version="1.0" standalone="no"?><!DOCTYPE svg PUBLIC "-//W3C//DTD SVG 1.1//EN" "http://www.w3.org/Graphics/SVG/1.1/DTD/svg11.dtd"><svg t="1724737120245" class="icon" viewBox="0 0 1024 1024" version="1.1" xmlns="http://www.w3.org/2000/svg" p-id="13172" xmlns:xlink="http://www.w3.org/1999/xlink" width="81" height="81"><path d="M497.371429 0l442.514285 256v512l-442.514285 256L54.857143 768V256l442.514286-256z m0 65.828571L109.714286 288.914286v446.171428l387.657143 223.085715 387.657142-223.085715V288.914286L497.371429 65.828571zM493.714286 219.428571c160.914286 0 292.571429 131.657143 292.571428 292.571429 0 131.657143-84.114286 241.371429-201.142857 277.942857l-58.514286-193.828571c36.571429-14.628571 58.514286-51.2 58.514286-91.428572 0-54.857143-43.885714-98.742857-98.742857-98.742857s-98.742857 43.885714-98.742857 98.742857c0 47.542857 29.257143 84.114286 73.142857 95.085715l-54.857143 190.171428c-117.028571-36.571429-201.142857-149.942857-201.142857-277.942857C201.142857 351.085714 332.8 219.428571 493.714286 219.428571z m0 62.171429c-128 0-230.4 102.4-230.4 230.4 0 76.8 36.571429 142.628571 95.085714 186.514286l7.314286 3.657143 21.942857-73.142858H384c-32.914286-29.257143-54.857143-69.485714-58.514286-117.028571v-7.314286c0-91.428571 73.142857-160.914286 160.914286-160.914285s160.914286 73.142857 160.914286 160.914285c0 43.885714-18.285714 84.114286-43.885715 113.371429l-3.657142 3.657143 25.6 80.457143 7.314285-3.657143c54.857143-40.228571 91.428571-106.057143 95.085715-175.542857V512c-3.657143-128-106.057143-230.4-234.057143-230.4z" fill="#8dd6fe" p-id="13173"></path></svg>