<svg t="1695194400949" class="icon" viewBox="0 0 1024 1024" version="1.1" xmlns="http://www.w3.org/2000/svg" p-id="10240" width="200" height="200"><path d="M871.1 821.4s-537.3 5.5-718.4 0c-29.4-0.9-53.2-25.1-53.2-56 0 0-5-339.5 0-519.8 0.9-30.9 23.8-56 53.2-56h718.4c29.4 0 52.3 25.1 53.2 56 4.3 143 0 519.8 0 519.8 0 30.9-23.8 56-53.2 56z" fill="#FE506B" p-id="10241"></path><path d="M382 705.1h338.9C642.2 664.3 574.8 601.4 510 546.2c-76.8 62.3-128 158.9-128 158.9z" fill="#FFBA3B" p-id="10242"></path><path d="M98.7 705c0.4 40.4 0.8 65.7 0.8 65.7 0 30.9 23.8 55.1 53.2 56 181.1 5.5 718.4 0 718.4 0 29.4 0 53.2-25.1 53.2-56 0 0 0.3-25.6 0.6-65.7H98.7z" fill="#8F3694" p-id="10243"></path><path d="M293.3 431.9c-77.5-1.6-145.5 64-195.8 132.4L98.7 705l283.3 0.1s51.2-96.6 128-158.9c-71.7-61.1-140.1-112.7-216.7-114.3zM636.6 494.7c-46.3-0.8-89.5 21.3-126.6 51.5 64.8 55.2 132.2 118.1 210.9 158.9l204.1 0.1 0.5-57.1c-101.6-68.5-187.8-151.6-288.9-153.4z" fill="#CAC134" p-id="10244"></path></svg>