<svg t="1688548381286" class="icon" viewBox="0 0 1161 1024" version="1.1" xmlns="http://www.w3.org/2000/svg" p-id="3954" width="200" height="200"><path d="M448.876712 274.313546m-274.313546 0a274.313546 274.313546 0 1 0 548.627093 0 274.313546 274.313546 0 1 0-548.627093 0Z" fill="#ea9518" p-id="3955"></path><path d="M445.759513 557.978691H436.407915c-241.582953 1.5586-436.407915 199.500761-436.407915 441.083714v15.585997c0 6.234399 4.675799 9.351598 9.351598 9.351598h875.933029c6.234399 0 9.351598-4.675799 9.351598-9.351598 1.5586-250.934551-199.500761-455.111111-448.876712-456.669711z m20.261796 324.188737c0 9.351598-7.792998 17.144597-17.144597 17.144596-9.351598 0-17.144597-7.792998-17.144596-17.144596v-116.894977c0-9.351598 7.792998-17.144597 17.144596-17.144597 9.351598 0 17.144597 7.792998 17.144597 17.144597v116.894977zM787.092846 121.570776c-26.496195 0-52.99239 4.675799-77.929985 14.027398 23.378995 40.523592 37.406393 88.840183 37.406393 138.715372 0 98.191781-51.43379 183.914764-127.805175 232.231355 42.082192 45.199391 101.30898 73.254186 166.770168 73.254186 126.246575 0 229.114155-102.86758 229.114155-229.114155 1.5586-126.246575-101.30898-229.114155-227.555556-229.114156z" fill="#ea9518" p-id="3956"></path><path d="M785.534247 586.033486h-9.351599c-37.406393 0-74.812785 6.234399-109.101978 17.144596 140.273973 68.578387 238.465753 208.852359 252.49315 370.946728h233.789955c4.675799 0 7.792998-3.117199 7.792998-7.792999 0-207.29376-166.770167-378.739726-375.622526-380.298325z" fill="#ea9518" p-id="3957"></path></svg>