<?xml version="1.0" standalone="no"?><!DOCTYPE svg PUBLIC "-//W3C//DTD SVG 1.1//EN" "http://www.w3.org/Graphics/SVG/1.1/DTD/svg11.dtd"><svg t="1724737907667" class="icon" viewBox="0 0 1024 1024" version="1.1" xmlns="http://www.w3.org/2000/svg" p-id="21775" xmlns:xlink="http://www.w3.org/1999/xlink" width="81" height="81"><path d="M845.6 96h-780.8v583.2c0 64 51.2 116.8 114.4 116.8h120c1.6 0 3.2 0 4.8-0.8v108.8c0 4.8 0.8 8.8 4 12.8 7.2 10.4 21.6 13.6 32 6.4l190.4-128h429.6v-583.2c0-64-51.2-116-114.4-116z m-536 419.2c-37.6 0-68-31.2-68-68.8s30.4-68.8 68-68.8 68 31.2 68 68.8-30.4 68.8-68 68.8z m208 0c-37.6 0-68-31.2-68-68.8s30.4-68.8 68-68.8 68 31.2 68 68.8-30.4 68.8-68 68.8z m216 0c-37.6 0-68-31.2-68-68.8s30.4-68.8 68-68.8 68 31.2 68 68.8-30.4 68.8-68 68.8z" p-id="21776" fill="#8dd6fe"></path></svg>