<svg t="1687766098524" class="icon" viewBox="0 0 1024 1024" version="1.1" xmlns="http://www.w3.org/2000/svg" p-id="3840" width="200" height="200"><path d="M512 1024C229.248 1024 0 794.752 0 512S229.248 0 512 0s512 229.248 512 512-229.248 512-512 512z m0-938.666667C276.352 85.333333 85.333333 276.352 85.333333 512s191.018667 426.666667 426.666667 426.666667 426.666667-191.018667 426.666667-426.666667S747.648 85.333333 512 85.333333z m276.864 463.104l-283.093333 283.093334A42.026667 42.026667 0 0 1 469.333333 853.333333c-0.512 0-0.981333-0.298667-1.493333-0.298666a42.069333 42.069333 0 0 1-31.701333-12.202667 42.581333 42.581333 0 0 1-9.472-45.738667V554.666667H298.666667c-0.512 0-0.981333-0.298667-1.493334-0.298667a42.069333 42.069333 0 0 1-31.701333-12.202667 42.624 42.624 0 0 1 0-60.330666l301.696-301.696a42.624 42.624 0 0 1 60.330667 0 42.069333 42.069333 0 0 1 12.202666 31.701333c0 0.512 0.298667 0.981333 0.298667 1.493333v256h112.426667a42.581333 42.581333 0 0 1 45.738666 9.472 42.069333 42.069333 0 0 1 12.202667 31.701334c0 0.512 0.298667 0.981333 0.298667 1.493333a42.026667 42.026667 0 0 1-21.802667 36.437333zM597.333333 554.666667a42.666667 42.666667 0 0 1-42.666666-42.666667V313.301333L398.634667 469.333333H469.333333a42.666667 42.666667 0 0 1 42.666667 42.666667v192.64L661.973333 554.666667H597.333333z" fill="#1afa29" p-id="3841"></path></svg>