<svg t="1695002391110" class="icon" viewBox="0 0 1024 1024" version="1.1" xmlns="http://www.w3.org/2000/svg" p-id="5808" width="200" height="200"><path d="M896 341.333333H128a42.666667 42.666667 0 0 0-42.666667 42.666667v469.333333a85.333333 85.333333 0 0 0 85.333334 85.333334h682.666666a85.333333 85.333333 0 0 0 85.333334-85.333334V384a42.666667 42.666667 0 0 0-42.666667-42.666667zM170.666667 426.666667h682.666666v426.666666H170.666667V426.666667z" fill="#049DEE" p-id="5809"></path><path d="M853.333333 128H170.666667a85.333333 85.333333 0 0 0-85.333334 85.333333v170.666667a42.666667 42.666667 0 0 0 42.666667 42.666667h768a42.666667 42.666667 0 0 0 42.666667-42.666667V213.333333a85.333333 85.333333 0 0 0-85.333334-85.333333zM170.666667 213.333333h682.666666v128H170.666667V213.333333z" fill="#049DEE" p-id="5810"></path><path d="M682.666667 85.333333a42.666667 42.666667 0 0 1 42.368 37.674667L725.333333 128v128a42.666667 42.666667 0 0 1-85.034666 4.992L640 256V128a42.666667 42.666667 0 0 1 42.666667-42.666667zM341.333333 85.333333a42.666667 42.666667 0 0 1 42.368 37.674667L384 128v128a42.666667 42.666667 0 0 1-85.034667 4.992L298.666667 256V128a42.666667 42.666667 0 0 1 42.666666-42.666667zM609.834667 524.501333a42.666667 42.666667 0 0 1 63.872 56.32l-3.541334 4.010667-170.666666 170.666667a42.666667 42.666667 0 0 1-56.32 3.541333l-4.010667-3.541333-85.333333-85.333334a42.666667 42.666667 0 0 1 56.32-63.872l4.010666 3.541334L469.333333 664.96l140.501334-140.458667z" fill="#03CD8E" p-id="5811"></path></svg>