<?xml version="1.0" standalone="no"?><!DOCTYPE svg PUBLIC "-//W3C//DTD SVG 1.1//EN" "http://www.w3.org/Graphics/SVG/1.1/DTD/svg11.dtd"><svg t="1724737536709" class="icon" viewBox="0 0 1024 1024" version="1.1" xmlns="http://www.w3.org/2000/svg" p-id="19612" xmlns:xlink="http://www.w3.org/1999/xlink" width="81" height="81"><path d="M0 512c0 282.4 229.6 512 512 512s512-229.6 512-512S794.4 0 512 0 0 229.6 0 512z" fill="#FFFFFF" p-id="19613"></path><path d="M798.4 197.6v22.4h-50.4v577.6c0 15.2-12.8 28-28 28H260.8v-600c0-15.2 12.8-28 28-28h509.6z" fill="#dbdbdb" p-id="19614" data-spm-anchor-id="a313x.search_index.0.i36.68273a81hmu5mE" class=""></path><path d="M719.2 840h-472V225.6c0-23.2 19.2-41.6 41.6-41.6h509.6c7.2 0 13.6 6.4 13.6 13.6v36.8h-50.4v563.2c0 23.2-19.2 42.4-42.4 42.4z m-444.8-28H720c8 0 14.4-6.4 14.4-14.4V212H289.6c-8 0-14.4 6.4-14.4 14.4v585.6h-0.8z" fill="#333333" p-id="19615"></path><path d="M651.2 336h-312c-11.2 0-20 8.8-20 20S328 376 339.2 376h312c11.2 0 20-8.8 20-20S662.4 336 651.2 336zM651.2 416h-312c-11.2 0-20 8.8-20 20S328 456 339.2 456h312c11.2 0 20-8.8 20-20S662.4 416 651.2 416zM507.2 512h-168c-11.2 0-20 8.8-20 20S328 552 339.2 552h168c11.2 0 20-8.8 20-20S518.4 512 507.2 512zM746.4 282.4v-37.6c0-26.4 21.6-48 48-48h5.6c23.2 0 42.4 19.2 42.4 42.4s-19.2 43.2-43.2 43.2h-52.8z" fill="#707070" p-id="19616" data-spm-anchor-id="a313x.search_index.0.i35.68273a81hmu5mE" class=""></path><path d="M800 295.2h-65.6v-50.4c0-33.6 27.2-60.8 60.8-60.8h4.8c30.4 0 55.2 24.8 55.2 55.2s-24.8 56-55.2 56z m-40.8-25.6h40.8c16.8 0 30.4-13.6 30.4-30.4s-13.6-30.4-30.4-30.4h-4.8c-19.2 0-35.2 16-35.2 35.2l-0.8 25.6z" fill="#333333" p-id="19617"></path><path d="M714.4 827.2H251.2c-25.6 0-48-16.8-56-41.6l-1.6-4.8c-0.8-3.2-1.6-5.6-1.6-8.8 0-16.8 13.6-30.4 30.4-30.4h438.4c16.8 0 31.2 11.2 36 27.2l17.6 58.4z" fill="#8a8a8a" p-id="19618" data-spm-anchor-id="a313x.search_index.0.i37.68273a81hmu5mE" class="selected"></path><path d="M727.2 826.4c2.4 7.2-3.2 13.6-10.4 13.6H251.2c-31.2 0-59.2-20.8-68-50.4l-1.6-4.8c-0.8-4-1.6-8-1.6-12 0-24 19.2-43.2 43.2-43.2h437.6c22.4 0 42.4 15.2 48 36l18.4 60.8z m-503.2-72c-9.6 0-18.4 8-18.4 18.4 0 1.6 0 3.2 0.8 4.8l1.6 4.8c5.6 19.2 23.2 32.8 43.2 32.8h446.4l-12.8-42.4c-3.2-10.4-12.8-18.4-24-18.4H224z" fill="#2c2c2c" p-id="19619" data-spm-anchor-id="a313x.search_index.0.i38.68273a81hmu5mE" class=""></path></svg>