<?xml version="1.0" standalone="no"?><!DOCTYPE svg PUBLIC "-//W3C//DTD SVG 1.1//EN" "http://www.w3.org/Graphics/SVG/1.1/DTD/svg11.dtd"><svg t="1695194637215" class="icon" viewBox="0 0 1024 1024" version="1.1" xmlns="http://www.w3.org/2000/svg" p-id="23431" xmlns:xlink="http://www.w3.org/1999/xlink" width="200" height="200"><path d="M300.05592 0h423.88816c200.041092 0 300.05592 100.014829 300.05592 300.05592v423.88816c0 200.041092-100.014829 300.05592-300.05592 300.05592H300.05592C100.014829 1024 0 923.973737 0 723.94408V300.05592C0 100.014829 100.014829 0 300.05592 0z" fill="#46CE7D" opacity=".15" p-id="23432"></path><path d="M512 512m-275.872616 0a275.872616 275.872616 0 1 0 551.745232 0 275.872616 275.872616 0 1 0-551.745232 0Z" fill="#46CE7D" p-id="23433"></path><path d="M391.963911 512m-30.872304 0a30.872303 30.872303 0 1 0 61.744607 0 30.872303 30.872303 0 1 0-61.744607 0Z" fill="#FFFFFF" p-id="23434"></path><path d="M512 512m-30.872303 0a30.872303 30.872303 0 1 0 61.744606 0 30.872303 30.872303 0 1 0-61.744606 0Z" fill="#FFFFFF" p-id="23435"></path><path d="M632.036089 512m-30.872303 0a30.872303 30.872303 0 1 0 61.744607 0 30.872303 30.872303 0 1 0-61.744607 0Z" fill="#FFFFFF" p-id="23436"></path></svg>