<svg t="1689815988953" class="icon" viewBox="0 0 1024 1024" version="1.1" xmlns="http://www.w3.org/2000/svg" p-id="6676" width="200" height="200"><path d="M512 142.222222c18.204444 0 30.321778-11.377778 30.321778-28.444444v-28.444445c0-17.066667-12.117333-28.444444-30.321778-28.444444-18.204444 0-30.321778 11.377778-30.321778 28.444444V113.777778c0 17.066667 12.117333 28.444444 30.321778 28.444444z m-382.065778 170.666667l-24.291555-11.377778c-18.204444-11.377778-36.408889-5.688889-42.439111 5.688889-12.117333 17.066667-6.087111 34.133333 12.117333 39.822222l30.321778 17.066667c12.117333 5.688889 30.321778 5.688889 36.408889-11.377778 12.117333-11.377778 6.030222-28.444444-12.117334-39.822222z m830.862222 0c-6.087111-17.066667-30.321778-17.066667-42.439111-11.377778l-30.321777 17.066667c-12.117333 5.688889-18.204444 22.755556-12.117334 39.822222 6.030222 11.377778 24.234667 17.066667 42.439111 11.377778l30.321778-17.066667c18.204444-11.377778 24.234667-28.444444 12.117333-39.822222z m-248.604444-119.466667c18.147556 11.377778 36.352 5.688889 42.382222-11.377778l18.204445-28.444444c6.087111-11.377778 6.087111-28.444444-12.117334-39.822222-18.204444 0-36.408889 5.688889-42.439111 17.066666l-18.204444 28.444445c-12.117333 11.377778-6.087111 28.444444 12.117333 34.133333z m-473.088 0c6.030222 11.377778 24.234667 17.066667 42.439111 11.377778 18.204444-11.377778 24.234667-28.444444 12.117333-39.822222l-18.204444-28.444445c-6.030222-17.066667-24.234667-17.066667-36.408889-11.377777-18.204444 11.377778-24.234667 28.444444-18.204444 39.822222l18.204444 28.444444z m248.604444 5.688889C318.008889 210.488889 178.517333 341.333333 166.343111 500.622222c-6.030222 130.844444 66.730667 244.622222 181.987556 301.511111v22.755556c0 22.755556 18.204444 39.822222 42.439111 39.822222h236.544c24.234667 0 42.439111-17.066667 42.439111-39.822222v-22.755556c109.169778-56.888889 181.930667-159.288889 181.930667-284.444444 6.087111-182.044444-157.696-329.955556-363.861334-318.577778z m181.987556 210.488889c-6.087111 0-18.204444-11.377778-18.204444-11.377778-30.321778-28.444444-66.730667-56.888889-127.374223-62.577778C518.087111 329.955556 512 324.266667 512 312.888889s12.117333-22.755556 24.234667-22.755556h6.087111c60.643556 17.066667 109.169778 45.511111 145.578666 85.333334 6.030222 5.688889 6.030222 11.377778 6.030223 17.066666 0 11.377778-12.117333 17.066667-24.234667 17.066667z m48.526222 68.266667c-6.087111 0-12.174222 0-18.204444-5.688889 0 0-6.087111-11.377778-12.117334-17.066667l-6.087111-5.688889v-5.688889c0-11.377778 12.117333-22.755556 24.234667-22.755555 6.087111 0 6.087111 0 12.174222 5.688889 0 0 12.117333 11.377778 12.117334 17.066666 0 5.688889 6.087111 11.377778 6.087111 17.066667 0 5.688889-6.087111 17.066667-18.204445 17.066667zM615.082667 910.222222H408.917333c-12.174222 0-30.321778 11.377778-30.321777 22.755556-6.087111 17.066667 12.117333 34.133333 30.321777 34.133333h212.252445c12.117333 0 24.234667-5.688889 30.321778-17.066667 0-22.755556-12.117333-39.822222-36.408889-39.822222z" fill="#FBC860" p-id="6677"></path></svg>