<svg t="1692063371039" class="icon" viewBox="0 0 1024 1024" version="1.1" xmlns="http://www.w3.org/2000/svg" p-id="12803" width="200" height="200"><path d="M39.893333 508.501333C39.893333 249.216 250.112 38.997333 509.44 38.997333s469.504 210.218667 469.504 469.504-210.218667 469.504-469.504 469.504S39.893333 767.786667 39.893333 508.501333z m578.005334-41.301333l-0.810667-1.792-0.170667-0.426667a40.96 40.96 0 1 0-72.917333 37.290667c11.392 25.728 6.4 57.045333-14.592 78.122667L419.413333 690.602667c-27.306667 27.306667-71.68 27.306667-98.986666 0-27.306667-27.306667-27.306667-71.68 0-98.986667l40.96-41.002667-0.298667-0.298666a40.96 40.96 0 1 0-57.002667-58.496l-0.085333-0.128-41.813333 41.813333a151.978667 151.978667 0 0 0 0 214.997333 151.978667 151.978667 0 0 0 215.04 0l110.293333-110.293333a152.064 152.064 0 0 0 30.378667-171.008z m144.512-209.792a151.978667 151.978667 0 0 0-215.04 0l-110.250667 110.293333a152.064 152.064 0 0 0-30.506667 170.88c0.298667 0.597333 0.469333 1.237333 0.768 1.834667 0.128 0.085333 0.128 0.170667 0.213334 0.384a40.96 40.96 0 1 0 72.917333-37.290667 70.485333 70.485333 0 0 1 14.592-78.08l110.08-110.122666c27.306667-27.306667 71.68-27.306667 98.986667 0 27.306667 27.306667 27.306667 71.68 0 98.986666l-40.96 41.002667 0.298666 0.298667a40.96 40.96 0 1 0 57.002667 58.496l0.085333 0.128 41.813334-41.813334a152.149333 152.149333 0 0 0 0-215.04z" fill="#d4237a" p-id="12804"></path></svg>